<?xml version="1.0" encoding="UTF-8" standalone="no"?>
<!-- Created with Inkscape (http://www.inkscape.org/) -->

<svg
   xmlns:dc="http://purl.org/dc/elements/1.1/"
   xmlns:cc="http://creativecommons.org/ns#"
   xmlns:rdf="http://www.w3.org/1999/02/22-rdf-syntax-ns#"
   xmlns:svg="http://www.w3.org/2000/svg"
   xmlns="http://www.w3.org/2000/svg"
   xmlns:sodipodi="http://sodipodi.sourceforge.net/DTD/sodipodi-0.dtd"
   xmlns:inkscape="http://www.inkscape.org/namespaces/inkscape"
   width="210mm"
   height="297mm"
   viewBox="0 0 744.09448819 1052.3622047"
   id="svg2"
   version="1.1"
   inkscape:version="0.91 r13725"
   sodipodi:docname="character.svg">
  <defs
     id="defs4" />
  <sodipodi:namedview
     id="base"
     pagecolor="#ffffff"
     bordercolor="#666666"
     borderopacity="1.0"
     inkscape:pageopacity="0.0"
     inkscape:pageshadow="2"
     inkscape:zoom="3.959798"
     inkscape:cx="80.540678"
     inkscape:cy="960.00545"
     inkscape:document-units="px"
     inkscape:current-layer="layer1"
     showgrid="false"
     inkscape:window-width="1920"
     inkscape:window-height="1017"
     inkscape:window-x="1912"
     inkscape:window-y="-8"
     inkscape:window-maximized="1" />
  <metadata
     id="metadata7">
    <rdf:RDF>
      <cc:Work
         rdf:about="">
        <dc:format>image/svg+xml</dc:format>
        <dc:type
           rdf:resource="http://purl.org/dc/dcmitype/StillImage" />
        <dc:title />
      </cc:Work>
    </rdf:RDF>
  </metadata>
  <g
     inkscape:label="Layer 1"
     inkscape:groupmode="layer"
     id="layer1">
    <g
       id="g3364"
       inkscape:export-xdpi="90"
       inkscape:export-ydpi="90"
       transform="matrix(0.17415151,0,0,0.17415151,20.489215,17.674716)"
       style="fill:none;stroke:#000000;stroke-width:4.01948855;stroke-miterlimit:4;stroke-dasharray:none">
      <path
         inkscape:connector-curvature="0"
         id="path3336"
         d="m 102.14286,219.50506 c -0.2381,0 -0.71429,-0.23809 -0.71429,0 0,0.2381 0.47619,0 0.71429,0 0.23809,0 0.47619,0 0.71428,0 0.95238,0 1.90476,0 2.85715,0 0.47619,0 -0.95239,0 -1.42858,0 -0.23809,0 0.47619,0 0.71429,0 0.2381,0 0.54593,0.16836 0.71429,0 0.16835,-0.16836 -0.16836,-0.54593 0,-0.71428 0.33671,-0.33672 1.09185,0.33671 1.42857,0 0.16836,-0.16836 -0.16836,-0.54593 0,-0.71429 0.16836,-0.16836 0.47619,0 0.71428,0 0.87192,0 1.64713,0.27717 2.14286,-0.71429 0.10648,-0.21296 0,-0.47619 0,-0.71428 0.2381,0 0.54593,0.16836 0.71429,0 1.47788,-1.47787 -2.2584,0.0578 0.71428,-1.42857 0.21296,-0.10648 0.50133,0.10648 0.71429,0 0.30117,-0.15059 0.41311,-0.5637 0.71428,-0.71429 0.21296,-0.10648 0.54593,0.16836 0.71429,0 0.16836,-0.16836 -0.16836,-0.54593 0,-0.71428 0.0287,-0.0288 2.59483,0 2.85714,0 0.17323,0 2.11986,-0.023 2.14286,0 0.16836,0.16835 -0.16836,0.54592 0,0.71428 0.16836,0.16836 0.50133,-0.10648 0.71428,0 0.30117,0.15059 0.41312,0.5637 0.71429,0.71429 0.42592,0.21296 1.09185,-0.33672 1.42857,0 0.16836,0.16836 -0.16836,0.54592 0,0.71428 0.33672,0.33672 1.09186,-0.33672 1.42857,0 0.16836,0.16836 -0.10648,0.50133 0,0.71429 0.15059,0.30117 0.5637,0.41311 0.71429,0.71428 0.10648,0.21296 -0.16836,0.54593 0,0.71429 0.33672,0.33672 1.09185,-0.33672 1.42857,0 0.16836,0.16836 -0.16836,0.54593 0,0.71429 0.33672,0.33671 1.09185,-0.33672 1.42857,0 0.16836,0.16835 -0.16836,0.54592 0,0.71428 0.16836,0.16836 0.54593,-0.16836 0.71429,0 0.16836,0.16836 -0.16836,0.54593 0,0.71429 0.16836,0.16836 0.54592,-0.16836 0.71428,0 0.47643,0.47642 -0.47642,0.95214 0,1.42857 0.16836,0.16836 0.54593,-0.16836 0.71429,0 0.16836,0.16836 -0.16836,0.54593 0,0.71428 0.16836,0.16836 0.54593,-0.16835 0.71428,0 0.33672,0.33672 -0.21295,1.00266 0,1.42858 0.15059,0.30116 0.56371,0.41311 0.71429,0.71428 0.0939,0.18782 0,2.48363 0,2.85714 0,0.2381 0.16836,0.54593 0,0.71429 -0.16836,0.16836 -0.54593,-0.16836 -0.71429,0 -0.16835,0.16836 0.16836,0.54593 0,0.71429 -0.16835,0.16835 -0.54592,-0.16836 -0.71428,0 -0.33672,0.33671 0.33672,1.09185 0,1.42857 -0.16836,0.16836 -0.54593,-0.16836 -0.71429,0 -0.35714,0.35714 0.35715,1.78571 0,2.14285 -0.16836,0.16836 -0.54592,-0.16835 -0.71428,0 -1.47789,1.47788 2.2584,-0.0578 -0.71429,1.42858 -0.21738,0.10869 -1.82117,0 -2.14286,0 -1.42857,0 -2.85714,0 -4.28571,0 -2.38095,0 -4.7619,0 -7.14286,0 -0.37351,0 -2.66932,0.0939 -2.85714,0 -0.30117,-0.15059 -0.41312,-0.56371 -0.71429,-0.71429 -0.2832,-0.1416 -1.99683,0.14603 -2.14285,0 -0.16836,-0.16836 0.16836,-0.54593 0,-0.71429 -0.16836,-0.16835 -0.54593,0.16836 -0.71429,0 -0.16836,-0.16835 0.16836,-0.54592 0,-0.71428 -0.33672,-0.33672 -1.09185,0.33672 -1.42857,0 -0.16836,-0.16836 0.16836,-0.54593 0,-0.71429 -0.16836,-0.16836 -0.54593,0.16836 -0.71429,0 -0.16835,-0.16836 0.16836,-0.54592 0,-0.71428 -0.16835,-0.16836 -0.54592,0.16836 -0.71428,0 -0.16836,-0.16836 0.16836,-0.54593 0,-0.71429 -0.33672,-0.33672 -1.09186,0.33672 -1.42857,0 -0.35715,-0.35714 0.35714,-1.78571 0,-2.14286 -0.16836,-0.16835 -0.54593,0.16836 -0.71429,0 -0.16836,-0.16835 0,-0.47619 0,-0.71428 0,-1.90476 0,-3.80953 0,-5.71429 0,-0.17323 0.023,-2.11985 0,-2.14285 -0.16836,-0.16836 -0.54593,0.16835 -0.71428,0 -0.19545,-0.19545 0.19374,-2.46966 0,-2.85715 -0.15059,-0.30117 -0.56371,-0.41311 -0.71429,-0.71428 -0.106479,-0.21296 0.16836,-0.54593 0,-0.71429 -0.168359,-0.16836 -0.545927,0.16836 -0.714286,0 -0.146026,-0.14603 0.141605,-1.85965 0,-2.14286 -0.150584,-0.30117 -0.563701,-0.41311 -0.714285,-0.71428 -0.10648,-0.21296 0.168358,-0.54593 0,-0.71429 -0.168359,-0.16836 -0.545927,0.16836 -0.714286,0 -0.336718,-0.33672 0.212959,-1.00265 0,-1.42857 -1.486341,-2.97269 0.04931,0.7636 -1.428571,-0.71428 -0.336718,-0.33672 0.212958,-1.00266 0,-1.42858 -0.150585,-0.30117 -0.563702,-0.41311 -0.714286,-0.71428 -0.141604,-0.28321 0.146026,-1.99683 0,-2.14286 -0.168359,-0.16836 -0.545927,0.16836 -0.714286,0 -0.168359,-0.16836 0,-0.47619 0,-0.71428 0,-1.90477 0,-3.80953 0,-5.71429 0,-0.33678 -0.03237,-3.53903 0,-3.57143 0.168359,-0.16836 0.545927,0.16836 0.714286,0 0.336717,-0.33672 -0.336718,-1.09185 0,-1.42857 0.168359,-0.16836 0.545927,0.16836 0.714286,0 0.476426,-0.47643 -0.476427,-0.95215 0,-1.42857 0.168358,-0.16836 0.545926,0.16836 0.714285,0 0.168359,-0.16836 -0.168359,-0.54593 0,-0.71429 0.168359,-0.16836 0.545927,0.16836 0.714286,0 0.168359,-0.16836 -0.168359,-0.54592 0,-0.71428 0.168359,-0.16836 0.545927,0.16836 0.714286,0 0.168358,-0.16836 -0.168359,-0.54593 0,-0.71429 0.168358,-0.16836 0.545927,0.16836 0.714285,0 0.168359,-0.16836 -0.168358,-0.54593 0,-0.71428 0.168359,-0.16836 0.545927,0.16835 0.714286,0 0.16836,-0.16836 -0.168359,-0.54593 0,-0.71429 0.16836,-0.16836 0.54593,0.16836 0.71429,0 0.16835,-0.16836 -0.10648,-0.50133 0,-0.71429 0.15058,-0.30117 0.5637,-0.41311 0.71428,-0.71428 0.10648,-0.21296 -0.16836,-0.54593 0,-0.71429 0.16836,-0.16836 0.54593,0.16836 0.71429,0 0.16836,-0.16836 -0.16836,-0.54592 0,-0.71428 0.16836,-0.16836 0.54592,0.16836 0.71428,0 0.33672,-0.33672 -0.21296,-1.00266 0,-1.42857 0.31655,-0.6331 1.70938,-1.49264 2.14286,-2.14286 0.29532,-0.44298 0.33782,-1.05211 0.71429,-1.42857 0.37646,-0.37646 1.00265,-0.39485 1.42857,-0.71429 2.4994,-1.87455 0.57845,-0.77127 2.14285,-2.85714 0.80813,-1.0775 2.04903,-1.77965 2.85715,-2.85714 0.31944,-0.42592 0.33782,-1.05211 0.71428,-1.42858 3.65027,-3.65027 -0.99624,2.99499 2.85715,-2.14285 0.31943,-0.42592 0.41896,-0.98559 0.71428,-1.42857 0.18678,-0.28017 0.47619,-0.4762 0.71429,-0.71429 0.47619,-0.47619 0.95238,-0.95238 1.42857,-1.42857 0.23809,-0.2381 0.41312,-0.5637 0.71428,-0.71429 0.21296,-0.10648 0.57143,0.19048 0.71429,0 0.63888,-0.85183 0.95238,-1.90476 1.42857,-2.85714 1.90959,1.57902 2.38476,3.7365 3.57143,5.71429 0.44168,0.73612 1.04465,1.37502 1.42857,2.14285 0.33672,0.67344 0.43466,1.44379 0.71429,2.14286 0.19772,0.49432 0.51656,0.93425 0.71428,1.42857 0.27963,0.69907 0.32691,1.49723 0.71429,2.14286 0.34648,0.57746 1.1274,0.82623 1.42857,1.42857 0.21296,0.42592 -0.15058,0.97682 0,1.42857 0.21296,0.63888 1.05502,0.86824 1.42857,1.42857 2.07978,3.11968 -0.31657,-0.23544 0.71429,2.85715 0.21296,0.63887 1.1274,0.82623 1.42857,1.42857 0.10648,0.21296 -0.16836,0.54592 0,0.71428 0.37646,0.37646 1.05211,0.33783 1.42857,0.71429 0.16836,0.16836 -0.10648,0.50132 0,0.71428 2.36899,2.36899 -0.33672,-0.67343 0.71429,1.42858 0.15058,0.30116 0.5637,0.41311 0.71428,0.71428 0.10648,0.21296 -0.10648,0.50133 0,0.71429 0.30117,0.60234 1.1274,0.82623 1.42857,1.42857 0.33672,0.67343 0.37757,1.46942 0.71429,2.14286 0.15058,0.30116 0.60781,0.39484 0.71428,0.71428 0.15059,0.45175 -0.15058,0.97682 0,1.42857 0.10648,0.31944 0.52751,0.43412 0.71429,0.71429 1.35316,-0.0813 0.47619,1.66666 0.71429,2.14286 0.30117,0.60233 1.1274,0.82623 1.42857,1.42857 0.10648,0.21296 0,0.47619 0,0.71428 0.23809,0.47619 0.41896,0.98559 0.71428,1.42857 -0.0713,1.41505 1.05211,0.33783 1.42857,0.71429 0.47643,0.47643 -0.47642,0.95214 0,1.42857 0.16836,0.16836 0.54593,-0.16836 0.71429,0 0.35714,0.35714 -0.35714,1.78572 0,2.14286 0.16836,0.16836 0.54593,-0.16836 0.71429,0 0.16835,0.16836 -0.16836,0.54593 0,0.71428 0.16835,0.16836 0.54592,-0.16835 0.71428,0 0.35714,0.35715 -0.35714,1.78572 0,2.14286 0.16836,0.16836 0.54593,-0.16836 0.71429,0 0.35714,0.35714 -0.35715,1.78572 0,2.14286 0.16836,0.16836 0.54592,-0.16836 0.71428,0 0.33672,0.33672 -0.33671,1.09185 0,1.42857 0.16836,0.16836 0.47619,0 0.71429,0 0.23809,0.47619 0.54593,0.92349 0.71428,1.42857 0.0881,0.26418 0.0924,4.10095 0,4.28572 -0.15058,0.30116 -0.5637,0.41311 -0.71428,0.71428 -0.0939,0.18782 0,2.48363 0,2.85714 0,1.19048 0,2.38096 0,3.57143 0,0.2381 0,0.47619 0,0.71429 0,0.23809 -0.10648,0.50132 0,0.71428 0.11518,0.23037 3.42022,3.47063 3.57143,3.57143 0.1981,0.13207 0.50132,-0.10648 0.71428,0 0.30117,0.15059 0.41312,0.5637 0.71429,0.71429 0.67343,0.33672 1.44378,0.43466 2.14286,0.71428 1.66545,0.66619 1.54086,1.09015 3.57142,1.42858 0.3184,0.0531 4.63706,-0.18148 5,0 0.30117,0.15058 0.41312,0.5637 0.71429,0.71428 0.0797,0.0399 3.4917,0.0399 3.57143,0 0.30117,-0.15058 0.41312,-0.5637 0.71428,-0.71428 0.67344,-0.33672 1.46943,-0.37757 2.14286,-0.71429 0.30117,-0.15059 0.41312,-0.5637 0.71429,-0.71429 0.67343,-0.33671 1.44378,-0.43465 2.14285,-0.71428 0.49432,-0.19773 0.91207,-0.58516 1.42858,-0.71429 0.46197,-0.11549 1.00265,0.21296 1.42857,0 0.21296,-0.10648 -0.10648,-0.50132 0,-0.71428 0.15058,-0.30117 0.5637,-0.41312 0.71428,-0.71429 0.10648,-0.21296 -0.16836,-0.54593 0,-0.71428 0.16836,-0.16836 0.54593,0.16835 0.71429,0 0.16836,-0.16836 -0.10648,-0.50133 0,-0.71429 0.15058,-0.30117 0.5637,-0.41312 0.71428,-0.71429 0.21296,-0.42591 -0.33671,-1.09185 0,-1.42857 0.16836,-0.16836 0.54593,0.16836 0.71429,0 0.33672,-0.33672 -0.33672,-1.09185 0,-1.42857 0.16836,-0.16836 0.54593,0.16836 0.71429,0 0.16835,-0.16836 0,-0.47619 0,-0.71428 0,-1.66667 0,-3.33334 0,-5 0,-0.2381 0,-0.4762 0,-0.71429 0,-0.2381 0.16835,-0.54593 0,-0.71429 -0.16836,-0.16835 -0.54593,0.16836 -0.71429,0 -0.16836,-0.16835 0.16836,-0.54592 0,-0.71428 -0.16836,-0.16836 -0.54593,0.16836 -0.71429,0 -0.16835,-0.16836 0.16836,-0.54593 0,-0.71429 -0.33671,-0.33672 -1.09185,0.33672 -1.42857,0 -0.16836,-0.16836 0.10648,-0.50132 0,-0.71428 -0.78966,-1.57933 -0.44331,-0.22166 -1.42857,-0.71429 -0.30117,-0.15058 -0.41311,-0.5637 -0.71428,-0.71428 -0.21296,-0.10648 -0.47619,0 -0.71429,0 -0.2381,0 -0.47619,0 -0.71429,0 -1.19047,0 -2.38095,0 -3.57142,0 -2.61905,0 -5.2381,0 -7.85715,0 -0.37351,0 -2.66932,-0.0939 -2.85714,0 -0.30117,0.15058 -0.39485,0.6078 -0.71429,0.71428 -0.45175,0.15059 -1.00265,-0.21296 -1.42857,0 -0.21296,0.10648 0.16836,0.54593 0,0.71429 -0.33671,0.33671 -1.09185,-0.33672 -1.42857,0 -0.16836,0.16836 0.16836,0.54592 0,0.71428 -0.33672,0.33672 -1.09185,-0.33672 -1.42857,0 -0.16836,0.16836 0.16836,0.54593 0,0.71429 -0.16836,0.16836 -0.60781,-0.21296 -0.71429,0 -0.21295,0.42592 0,0.95238 0,1.42857 0,0.23809 0.16836,0.54593 0,0.71429 -0.16835,0.16835 -0.54592,-0.16836 -0.71428,0 -0.16836,0.16835 0.16836,0.54592 0,0.71428 -0.33672,0.33672 -1.09186,-0.33672 -1.42857,0 -0.16836,0.16836 0.16836,0.54593 0,0.71429 -0.023,0.023 -1.96963,0 -2.14286,0"
         style="fill:none;fill-rule:evenodd;stroke:#000000;stroke-width:4.01948855;stroke-linecap:butt;stroke-linejoin:miter;stroke-opacity:1;stroke-miterlimit:4;stroke-dasharray:none" />
      <path
         inkscape:connector-curvature="0"
         id="path3338"
         d="m 124.28571,163.79078 c 0.95239,-0.71429 2.0824,-1.23899 2.85715,-2.14286 1.5325,-1.78792 2.22877,-6.0977 2.85714,-7.85714 0.60987,-1.70765 1.56945,-3.27978 2.14286,-5 0.38391,-1.15176 0.39484,-2.40016 0.71428,-3.57143 0.39622,-1.45279 1.06335,-2.82483 1.42857,-4.28572 0.35126,-1.40503 0.58317,-2.84338 0.71429,-4.28571 0.10778,-1.18559 -0.28873,-2.4165 0,-3.57143 0.20821,-0.83283 1.1571,-1.32845 1.42857,-2.14286 0.22588,-0.67763 -0.11743,-1.43829 0,-2.14285 1.04502,-6.27013 0.26275,1.09185 1.42857,-3.57143 0.0101,-0.0405 -0.0883,-2.72464 0,-2.85715 0.37356,-0.56033 1.05502,-0.86824 1.42857,-1.42857 0.11784,-0.17675 0,-2.49045 0,-2.85714 0,-0.2381 0,-0.47619 0,-0.71429 0,-0.23809 -0.16835,-0.54592 0,-0.71428 0.16836,-0.16836 0.54593,0.16836 0.71429,0 0.15271,-0.15272 -0.13127,-2.46334 0,-2.85714 0.16836,-0.50508 0.47619,-0.95239 0.71429,-1.42858 0.47619,-0.95238 0.95238,-1.90476 1.42857,-2.85714 0.23809,-0.47619 0.54592,-0.92349 0.71428,-1.42857 2.05067,-8.202666 -0.81681,1.90591 2.14286,-5 0.38671,-0.90232 0.40385,-1.92583 0.71429,-2.85714 0.16835,-0.50508 0.51655,-0.934257 0.71428,-1.428575 0.27963,-0.699072 0.43466,-1.443785 0.71429,-2.142857 0.19772,-0.494318 0.58516,-0.91207 0.71428,-1.428571 0.17324,-0.692959 0,-1.428572 0,-2.142858 0,-1.428571 0,-2.857142 0,-4.285714 0,-0.47619 0,-0.952381 0,-1.428571 0,-0.238096 -0.0753,-0.488409 0,-0.714286 0.16836,-0.505076 0.58516,-0.91207 0.71429,-1.428571 0.17324,-0.692959 -0.22588,-1.465227 0,-2.142858 0.16836,-0.505076 0.58516,-0.91207 0.71428,-1.428571 0.1358,-0.54319 0,-2.973294 0,-3.571429 0,-1.904761 0,-3.809523 0,-5.714285"
         style="fill:none;fill-rule:evenodd;stroke:#000000;stroke-width:4.01948855;stroke-linecap:butt;stroke-linejoin:miter;stroke-opacity:1;stroke-miterlimit:4;stroke-dasharray:none" />
      <path
         inkscape:connector-curvature="0"
         id="path3340"
         d="m 151.42857,75.933632 c -4.85172,6.468967 -0.009,0.899966 -3.57143,3.571429 -0.53875,0.404061 -0.88982,1.02451 -1.42857,1.428571 -0.42592,0.319439 -0.95238,0.476191 -1.42857,0.714286 -0.47619,0.238095 -0.91207,0.58516 -1.42857,0.714286 -0.46197,0.115493 -1.00265,-0.212959 -1.42857,0 -0.21296,0.106479 0.21296,0.607806 0,0.714285 -0.42592,0.212959 -0.97682,-0.150584 -1.42857,0 -0.31944,0.10648 -0.43412,0.527509 -0.71429,0.714286 -0.44298,0.295321 -0.95238,0.476191 -1.42857,0.714286 -0.47619,0.238095 -0.95238,0.47619 -1.42857,0.714286 -0.95238,0.238095 -1.95483,0.327578 -2.85715,0.714285 -0.78905,0.338166 -1.3538,1.090406 -2.14285,1.428572 -0.90232,0.386707 -1.92583,0.403847 -2.85715,0.714285 -0.50507,0.168359 -0.93425,0.516559 -1.42857,0.714286 -0.69907,0.279629 -1.46942,0.377568 -2.14285,0.714286 -0.30117,0.150585 -0.41312,0.563701 -0.71429,0.714286 -0.67343,0.336717 -1.41241,0.531675 -2.14286,0.714285 -0.46197,0.115493 -1.00265,-0.212959 -1.42857,0 -3.269,1.634503 3.03101,-0.296051 -2.14286,1.428572 -0.22587,0.07529 -0.47619,0 -0.71428,0 -0.2381,0.238095 -0.41312,0.563701 -0.71429,0.714285 -0.21296,0.10648 -0.50132,-0.106479 -0.71428,0 -0.30117,0.150585 -0.47619,0.476191 -0.71429,0.714286 -0.55792,0.557919 -1.5265,1.731952 -2.14286,2.142857 -0.44298,0.295321 -0.92349,0.545927 -1.42857,0.714286 -0.45175,0.150585 -1.09185,-0.336718 -1.42857,0 -0.0714,0.07143 -0.0714,2.071429 0,2.142857 0.16836,0.168359 0.54593,-0.168359 0.71429,0 0.16836,0.168359 -0.16836,0.545927 0,0.714286 0.16836,0.168359 0.54592,-0.168359 0.71428,0 0.16836,0.168359 -0.16836,0.545929 0,0.714289 0.16836,0.16836 0.54593,-0.16836 0.71429,0 0.47643,0.47642 -0.47643,0.95214 0,1.42857 0.33672,0.33672 1.09185,-0.33672 1.42857,0 0.0287,0.0287 0,2.59483 0,2.85714 0,0.2381 0.16836,0.54593 0,0.71429 -0.16836,0.16836 -0.54593,-0.16836 -0.71429,0 -0.16835,0.16836 0.16836,0.54592 0,0.71428 -0.16835,0.16836 -0.6078,-0.21296 -0.71428,0 -0.21296,0.42592 0.21296,1.00266 0,1.42857 -0.10648,0.21296 -0.54593,-0.16836 -0.71429,0 -0.16836,0.16836 0.10648,0.50133 0,0.71429 -0.15058,0.30117 -0.47619,0.47619 -0.71428,0.71429 -0.47619,0.47619 -1.00788,0.9027 -1.42857,1.42857 -0.53628,0.67034 -0.8923,1.47251 -1.42858,2.14285 -0.42069,0.52587 -1.02451,0.88983 -1.42857,1.42858 -0.31944,0.42591 -0.39484,1.00265 -0.71428,1.42857 -0.40406,0.53874 -0.95238,0.95238 -1.42857,1.42857 -0.47619,0.71428 -0.9135,1.45608 -1.42858,2.14286 -0.60609,0.80812 -1.53676,1.33473 -2.14285,2.14285 -0.82467,1.09956 -0.71429,1.67161 -0.71429,2.85715 0,0.23809 0,0.47619 0,0.71428 0,0.2381 0.10648,0.50133 0,0.71429 -0.88264,1.76529 -0.71428,-0.24656 -0.71428,1.42857 -5.24996,1.74998 -0.36379,-0.23367 -2.857147,1.42857 -0.442981,0.29532 -1.05211,0.33782 -1.428571,0.71429 -0.607027,0.60702 -0.821546,1.53583 -1.428572,2.14285 -1.587301,1.5873 -1.507936,-0.39682 -2.142857,2.14286 -0.184981,0.73992 0,2.0381 0,2.85714 0,0.2381 -0.168359,0.54593 0,0.71429 0.168359,0.16836 0.501327,-0.10648 0.714286,0 0.301169,0.15058 0.413116,0.5637 0.714285,0.71428 0.425918,0.21296 1.002654,-0.21296 1.428572,0 0.301169,0.15059 0.394847,0.60781 0.714286,0.71429 0.40633,0.13544 2.898687,0 3.571428,0 0.2381,0 0.47619,0 0.71429,0 0.23809,0 0.54592,0.16836 0.71428,0 0.16836,-0.16836 -0.16836,-0.54593 0,-0.71429 0.16836,-0.16835 0.54593,0.16836 0.71429,0 0.16836,-0.16835 -0.10648,-0.50132 0,-0.71428 0.15058,-0.30117 0.5637,-0.41312 0.71428,-0.71429 0.21296,-0.42592 -0.33671,-1.09185 0,-1.42857 0.16836,-0.16836 0.54593,0.16836 0.71429,0 0.023,-0.023 0,-1.96962 0,-2.14286 0,-0.33678 0.0324,-3.53905 0,-3.57142 -3.19384,-3.19385 -4.849672,-2.85715 -8.57143,-2.85715 -0.238095,0 -0.47619,0 -0.714286,0 -0.238095,0 -0.545927,-0.16836 -0.714285,0 -0.168359,0.16836 0,0.47619 0,0.71429 0,0.23809 0,0.47619 0,0.71428 0,0.32169 -0.108691,1.92548 0,2.14286 1.486343,2.97269 -0.04931,-0.7636 1.428571,0.71429 0.168359,0.16836 -0.168359,0.54592 0,0.71428 0.952381,0.95238 0.714286,-1.19047 0.714286,0.71429"
         style="fill:none;fill-rule:evenodd;stroke:#000000;stroke-width:4.01948855;stroke-linecap:butt;stroke-linejoin:miter;stroke-opacity:1;stroke-miterlimit:4;stroke-dasharray:none" />
      <path
         inkscape:connector-curvature="0"
         id="path3342"
         d="m 151.42857,79.505061 c 0.95238,0.47619 2.02568,0.7634 2.85714,1.428571 0.41574,0.332586 0.39485,1.002654 0.71429,1.428572 0.40406,0.538748 1.02451,0.889823 1.42857,1.428571 0.31944,0.425918 0.44037,0.972045 0.71429,1.428572 0.44167,0.736127 0.95238,1.428571 1.42857,2.142857 0.47619,0.714285 0.87899,1.483366 1.42857,2.142857 0.64668,0.776021 1.55572,1.320862 2.14286,2.142857 2.47724,3.468134 0.58843,1.891145 2.14285,5 0.15059,0.301169 0.51226,0.444912 0.71429,0.714286 0.0564,0.07523 2.83809,4.266656 2.85714,4.285716 0.37646,0.37646 1.01284,0.3817 1.42857,0.71428 0.7888,0.63104 1.2658,1.64168 2.14286,2.14286 0.85235,0.48706 1.91322,0.4446 2.85714,0.71429 0.72396,0.20684 1.40018,0.5905 2.14286,0.71428 1.32188,0.22032 3.7342,-0.31645 5,0 0.32667,0.0817 0.39485,0.60781 0.71429,0.71429 0.51689,0.1723 2.62168,-0.23546 2.85714,0 0.33672,0.33672 -0.33672,1.09185 0,1.42857 0.33672,0.33672 1.09185,-0.33672 1.42857,0 0.16836,0.16836 -0.10648,0.50133 0,0.71429 0.14426,0.2885 2.83573,2.83573 2.85714,2.85714 0.2381,0.23809 0.56371,0.41311 0.71429,0.71428 0.1416,0.28321 -0.14603,1.99683 0,2.14286 0.16836,0.16836 0.54593,-0.16836 0.71429,0 0.0324,0.0324 0,3.23465 0,3.57143"
         style="fill:none;fill-rule:evenodd;stroke:#000000;stroke-width:4.01948855;stroke-linecap:butt;stroke-linejoin:miter;stroke-opacity:1;stroke-miterlimit:4;stroke-dasharray:none" />
      <path
         inkscape:connector-curvature="0"
         id="path3344"
         d="m 197.85714,120.93363 c -1.87584,0.87447 -4.42122,1.9706 -5,4.28572 -0.11549,0.46197 0.1155,0.9666 0,1.42857 -0.25825,1.033 -1.21975,1.81302 -1.42857,2.85714 -0.18678,0.93389 0,1.90476 0,2.85714 0,0.2381 0,0.47619 0,0.71429 0,0.23809 -0.10648,0.50133 0,0.71429 0.15059,0.30116 0.51226,0.44491 0.71429,0.71428 0.95521,1.27362 1.48592,2.65728 2.85714,3.57143 0.19811,0.13207 0.50133,-0.10648 0.71429,0 0.30117,0.15058 0.38762,0.63262 0.71428,0.71429 0.84866,0.21216 2.54597,0 3.57143,0 0.38158,0 3.367,0.10221 3.57143,0 1.02678,-0.51339 1.09953,-2.03455 1.42857,-2.85715 0.92724,-2.31811 0.71429,-0.4815 0.71429,-2.85714 0,-1.42857 0,-2.85714 0,-4.28571 0,-0.4762 0,-0.95239 0,-1.42858 0,-0.23809 0.10648,-0.50132 0,-0.71428 -0.15059,-0.30117 -0.52751,-0.43412 -0.71429,-0.71429 -1.05393,-1.58089 -0.28916,-1.62134 -2.14286,-2.85714 -0.1981,-0.13207 -0.54592,0.16836 -0.71428,0 -0.16836,-0.16836 0.16836,-0.54593 0,-0.71429 -0.16836,-0.16836 -0.50133,0.10648 -0.71429,0 -0.30117,-0.15058 -0.40165,-0.58923 -0.71428,-0.71428 -0.91148,-0.36459 -1.9791,-0.27526 -2.85715,-0.71429 -3.46716,-1.73358 -1.7229,-2.31096 -5,-2.85714 -1.11761,-0.18627 -3.03008,0 -4.28571,0 -0.32169,0 -1.92548,-0.10869 -2.14286,0 -0.30117,0.15058 -0.47619,0.47619 -0.71428,0.71429 -0.2381,0.23809 -0.56371,0.41311 -0.71429,0.71428 -0.10648,0.21296 0.16836,0.54593 0,0.71429 -0.16836,0.16836 -0.54593,-0.16836 -0.71429,0 -0.16835,0.16836 0,0.47619 0,0.71428 0,0.2381 0,0.47619 0,0.71429 0,0.87191 -0.27717,1.64713 0.71429,2.14286 0.21296,0.10647 0.50133,-0.10648 0.71429,0 0.60233,0.30116 0.78969,1.21561 1.42857,1.42857 0.67763,0.22587 1.42857,0 2.14285,0"
         style="fill:none;fill-rule:evenodd;stroke:#000000;stroke-width:4.01948855;stroke-linecap:butt;stroke-linejoin:miter;stroke-opacity:1;stroke-miterlimit:4;stroke-dasharray:none" />
      <path
         inkscape:connector-curvature="0"
         id="path3346"
         d="m 150.71429,74.505061 c 0,-3.095238 0,-6.190476 0,-9.285714"
         style="fill:none;fill-rule:evenodd;stroke:#000000;stroke-width:4.01948855;stroke-linecap:butt;stroke-linejoin:miter;stroke-opacity:1;stroke-miterlimit:4;stroke-dasharray:none" />
      <path
         inkscape:connector-curvature="0"
         id="path3348"
         d="m 131.42857,33.076489 c 0.95238,0 1.90476,0 2.85714,0 0.2381,0.238096 0.38411,0.64825 0.71429,0.714286 0.93389,0.186777 1.97288,-0.353705 2.85714,0 0.49432,0.197727 0.20921,1.260213 0.71429,1.428572 1.12938,0.376461 2.39292,-0.168359 3.57143,0 0.52704,0.07529 0.91666,0.568024 1.42857,0.714285 1.16734,0.333526 2.38629,0.450921 3.57143,0.714286 0.95831,0.212959 1.88531,0.575453 2.85714,0.714286 0.70711,0.101015 1.42857,0 2.14286,0 1.66666,0 3.33333,0 5,0 0.23809,0 0.71428,-0.238096 0.71428,0 0,0.230316 -1.23013,1.031689 -1.42857,1.428571 -0.10648,0.212959 0.0753,0.488409 0,0.714286 -0.16836,0.505076 -0.54593,0.923495 -0.71428,1.428571 -0.0753,0.225877 0.16835,0.545927 0,0.714286 -0.16836,0.168359 -0.50133,-0.106479 -0.71429,0 -0.29554,0.147768 -1.94102,1.840098 -2.14286,2.142857 -0.29532,0.442981 -0.33782,1.05211 -0.71428,1.428572 -0.33672,0.336717 -1.09186,-0.336718 -1.42857,0 -0.16836,0.168358 0.16835,0.545926 0,0.714285 -0.14603,0.146026 -1.85965,-0.141604 -2.14286,0 -0.30117,0.150585 -0.41312,0.563701 -0.71429,0.714286 -0.18781,0.09391 -2.48363,0 -2.85714,0 -0.33678,0 -3.53906,0.03237 -3.57143,0 -0.16836,-0.168359 0.16836,-0.545927 0,-0.714286 -0.33672,-0.336717 -1.00265,0.212959 -1.42857,0 -0.30117,-0.150584 -0.41312,-0.563701 -0.71429,-0.714285 -0.21295,-0.10648 -0.54592,0.168358 -0.71428,0 -0.16836,-0.168359 0.16836,-0.545927 0,-0.714286 -0.16836,-0.168359 -0.54593,0.168359 -0.71429,0 -0.16836,-0.168359 0.10648,-0.501327 0,-0.714286 -0.34338,-0.686772 -2.66954,-2.294342 -2.85714,-2.857143 -0.15058,-0.451754 0.21296,-1.002653 0,-1.428571 -0.10648,-0.212959 -0.54593,0.168359 -0.71429,0 -0.16835,-0.168359 0,-0.476191 0,-0.714286 0,-0.262312 -0.0287,-2.828399 0,-2.857143 0.16836,-0.168359 0.54593,0.168359 0.71429,0 0.33672,-0.336717 -0.33672,-1.091854 0,-1.428571 0.023,-0.02297 1.96962,0 2.14286,0"
         style="fill:none;fill-rule:evenodd;stroke:#000000;stroke-width:4.01948855;stroke-linecap:butt;stroke-linejoin:miter;stroke-opacity:1;stroke-miterlimit:4;stroke-dasharray:none" />
      <path
         inkscape:connector-curvature="0"
         id="path3350"
         d="m 159.28571,38.076489 c 1.66667,0 3.33334,0 5,0 0.2381,0 0.50133,0.10648 0.71429,0 0.30117,-0.150584 0.41312,-0.563701 0.71429,-0.714285 0.21295,-0.10648 0.54592,0.168358 0.71428,0 0.16836,-0.168359 -0.10648,-0.501327 0,-0.714286 0.15059,-0.301169 0.5637,-0.413116 0.71429,-0.714286 0.10648,-0.212959 -0.16836,-0.545927 0,-0.714285 0.33671,-0.336718 1.09185,0.336717 1.42857,0 0.16836,-0.168359 -0.2381,-0.714286 0,-0.714286 0.47619,0 -0.21296,1.002654 0,1.428571 0.15058,0.30117 0.5637,0.413117 0.71428,0.714286 0.12916,0.25831 0,3.074614 0,3.571429 0,0.238095 0.16836,0.545926 0,0.714285 -0.33671,0.336718 -1.09185,-0.336717 -1.42857,0 -0.33671,0.336718 0.33672,1.091854 0,1.428572 -0.16836,0.168358 -0.54592,-0.168359 -0.71428,0 -0.16836,0.168358 0.16836,0.545927 0,0.714285 -0.16836,0.168359 -0.54593,-0.168358 -0.71429,0 -0.16836,0.168359 0.16836,0.545927 0,0.714286 -0.35714,0.357143 -1.78571,-0.357143 -2.14286,0 -0.16835,0.168359 0.16836,0.545927 0,0.714286 -0.16835,0.168359 -0.47619,0 -0.71428,0 0,0.238095 0.16836,0.545927 0,0.714286 -0.023,0.02297 -1.96963,0 -2.14286,0 -0.23809,0 -0.47619,0 -0.71428,0 -0.2381,0 -0.54593,0.168358 -0.71429,0 -0.16836,-0.168359 0.16836,-0.545927 0,-0.714286 -0.33672,-0.336718 -1.09185,0.336717 -1.42857,0 -0.33672,-0.336718 0.33672,-1.091854 0,-1.428572 -0.16836,-0.168358 -0.54593,0.168359 -0.71429,0 -0.16836,-0.168358 0,-0.47619 0,-0.714285 0,-2.559448 -0.37635,-1.578328 1.42857,-4.285715 z"
         style="fill:none;fill-rule:evenodd;stroke:#000000;stroke-width:4.01948855;stroke-linecap:butt;stroke-linejoin:miter;stroke-opacity:1;stroke-miterlimit:4;stroke-dasharray:none" />
      <path
         inkscape:connector-curvature="0"
         id="path3352"
         d="m 156.42857,45.219347 c 5.58967,-0.831571 0.52193,2.664788 1.42857,3.571428 0.16836,0.168359 0.54593,-0.168359 0.71429,0 0.16836,0.168359 -0.16836,0.545927 0,0.714286 0.16836,0.168359 0.54593,-0.168359 0.71428,0 0.33672,0.336717 -0.33671,1.091854 0,1.428571 0.16836,0.168359 0.54593,-0.168359 0.71429,0 0.16836,0.168359 -0.16836,0.545927 0,0.714286 0.16836,0.168359 0.54593,-0.168359 0.71429,0 0.16835,0.168359 -0.16836,0.545927 0,0.714286 0.35714,0.357143 1.78571,-0.357143 2.14285,0 0.16836,0.168358 -0.16836,0.545927 0,0.714285 0.16836,0.168359 0.54593,-0.168358 0.71429,0 0.16836,0.168359 0,0.476191 0,0.714286 0,0.173233 0.023,2.119886 0,2.142857 -0.16836,0.168359 -0.50133,-0.106479 -0.71429,0 -0.30117,0.150585 -0.41311,0.563701 -0.71428,0.714286 -0.18468,0.09234 -3.77943,0 -4.28572,0 -0.23809,0 -0.54592,0.168359 -0.71428,0 -0.16836,-0.168359 0,-0.476191 0,-0.714286"
         style="fill:none;fill-rule:evenodd;stroke:#000000;stroke-width:4.01948855;stroke-linecap:butt;stroke-linejoin:miter;stroke-opacity:1;stroke-miterlimit:4;stroke-dasharray:none" />
      <path
         inkscape:connector-curvature="0"
         id="path3354"
         d="m 144.28571,63.076489 c 8.85075,1.899222 1.01348,-3.156329 2.14286,-4.285714 0.37646,-0.376462 1.05211,-0.337824 1.42857,-0.714286 0.16836,-0.168358 -0.10648,-0.501326 0,-0.714285 0.15059,-0.30117 0.47619,-0.476191 0.71429,-0.714286 0.23809,-0.238095 0.41312,-0.563701 0.71428,-0.714286 0.25831,-0.129155 3.07462,0 3.57143,0 0.2381,0 0.54593,-0.168359 0.71429,0 0.16836,0.168359 -0.16836,0.545927 0,0.714286 0.16836,0.168359 0.54593,-0.168359 0.71428,0 0.16836,0.168359 -0.16835,0.545927 0,0.714286 0.16836,0.168358 0.54593,-0.168359 0.71429,0 0.33672,0.336717 -0.33672,1.091854 0,1.428571 1.47788,1.477883 -0.0578,-2.2584 1.42857,0.714286 0.0939,0.187815 0,2.483628 0,2.857143 0,0.238095 0.16836,0.545927 0,0.714285 -0.46187,0.461874 -2.9861,-1.28224 -3.57143,-1.428571 -0.34799,-0.087 -2.47944,0.188847 -2.85714,0 -0.30117,-0.150585 -0.41312,-0.563701 -0.71429,-0.714286 -0.0336,-0.01683 -2.12539,-0.01047 -2.14285,0 -1.02083,0.612495 -2.01535,2.984651 -2.85715,2.142857 -3.04761,-3.047619 4.4,-2.857142 1.42858,-2.857142"
         style="fill:none;fill-rule:evenodd;stroke:#000000;stroke-width:4.01948855;stroke-linecap:butt;stroke-linejoin:miter;stroke-opacity:1;stroke-miterlimit:4;stroke-dasharray:none" />
      <path
         inkscape:connector-curvature="0"
         id="path3356"
         d="m 156.42857,15.933632 c 1.3897,-0.469711 2.87658,0.234856 4.28572,0 0.96833,-0.161389 1.87948,-0.625407 2.85714,-0.714286 2.83372,-0.257611 5.7377,0.257612 8.57143,0 1.44233,-0.13112 2.84026,-0.623944 4.28571,-0.714285 2.37632,-0.14852 4.76191,0 7.14286,0 1.19047,0 2.38823,0.131466 3.57143,0 0.97568,-0.10841 1.90476,-0.476191 2.85714,-0.714286 1.66667,-0.238095 3.32477,-0.546762 5,-0.714286 0.94765,-0.09477 1.90476,0 2.85714,0 0.2381,0 0.47619,0 0.71429,0 0.23809,0 0.54593,-0.168358 0.71428,0 0.16836,0.168359 0,0.476191 0,0.714286 0,0.238095 0,0.476191 0,0.714286 0,0.373514 0.0939,2.669327 0,2.857143 -0.15058,0.301169 -0.50394,0.451353 -0.71428,0.714285 -0.74369,0.929606 -1.42857,1.904762 -2.14286,2.857143 -0.71428,0.952381 -1.56471,1.81648 -2.14286,2.857143 -0.62268,1.120829 -0.90782,2.399756 -1.42857,3.571429 -0.43245,0.973021 -1.17032,1.82414 -1.42857,2.857143 -0.23098,0.923945 0.18678,1.923256 0,2.857142 -0.066,0.330179 -0.6078,0.394848 -0.71428,0.714286 -0.22588,0.677631 0,1.428572 0,2.142857 0,1.428572 0,2.857143 0,4.285715 0,0.506287 0.0923,4.101035 0,4.285714 -0.15059,0.301169 -0.56371,0.413116 -0.71429,0.714286 -0.33672,0.673435 -0.43466,1.443785 -0.71429,2.142857 -0.19772,0.494318 -0.58516,0.91207 -0.71428,1.428571 -0.11549,0.461973 0.21296,1.002654 0,1.428572 -0.10648,0.212958 -0.54593,-0.168359 -0.71429,0 -0.16836,0.168358 0,0.47619 0,0.714285 0,0.238095 0,0.476191 0,0.714286 0,0.238095 0,0.47619 0,0.714286 0,0.238095 0.2381,0.714285 0,0.714285 -0.23809,0 0.0753,-0.488408 0,-0.714285 -0.16836,-0.505077 -0.51656,-0.934253 -0.71428,-1.428572 -0.27963,-0.699071 -0.43466,-1.443785 -0.71429,-2.142857 -0.19773,-0.494318 -0.60987,-0.906513 -0.71428,-1.428571 -0.23348,-1.167358 0.28873,-2.416497 0,-3.571429 -0.12913,-0.516501 -0.60988,-0.906513 -0.71429,-1.428571 -0.14008,-0.700415 0,-1.428572 0,-2.142857 0,-1.190477 0,-2.380953 0,-3.571429 0,-0.952381 0,-1.904762 0,-2.857143 0,-0.238095 0.2381,-0.714286 0,-0.714286 -0.54591,0 -1.42516,2.13774 -1.42857,2.142858 -0.20184,0.302759 -1.84732,1.995089 -2.14286,2.142857 -0.21296,0.106479 -0.50133,-0.10648 -0.71428,0 -0.30117,0.150584 -0.41312,0.563701 -0.71429,0.714285 -0.0374,0.01868 -2.10549,0.01868 -2.14286,0 -0.30117,-0.150584 -0.41311,-0.563701 -0.71428,-0.714285 -0.21296,-0.10648 -0.48841,0.07529 -0.71429,0 C 175.9235,37.193845 175.5165,36.777043 175,36.647918 c -0.53019,-0.132547 -2.6379,0.219246 -2.85714,0 -0.0714,-0.07143 -0.0714,-2.071429 0,-2.142857 0.16836,-0.168359 0.54592,0.168359 0.71428,0 0.16836,-0.168359 -0.10648,-0.501327 0,-0.714286 0.15059,-0.301169 0.5637,-0.413116 0.71429,-0.714286 0.0733,-0.14652 0.10073,-2.042124 0,-2.142857 -0.33672,-0.336717 -1.00265,0.212959 -1.42857,0 -2.97269,-1.486343 0.76359,0.04931 -0.71429,-1.428571 -0.16836,-0.168359 -0.54593,0.168359 -0.71428,0 -0.33672,-0.336718 0.33671,-1.091854 0,-1.428572 -0.35715,-0.357142 -1.78572,0.357143 -2.14286,0 -0.16836,-0.168358 0.16836,-0.545927 0,-0.714285 -0.33672,-0.336718 -1.00265,0.212958 -1.42857,0 -0.30117,-0.150585 -0.39485,-0.607807 -0.71429,-0.714286 -0.67763,-0.225877 -1.42857,0 -2.14286,0 -2.38095,0 -4.7619,0 -7.14285,0 -0.71429,0 -1.42857,0 -2.14286,0 -0.2381,0 -0.54593,-0.168359 -0.71429,0 -0.0714,0.07143 0.33334,2.47619 -0.71428,1.428571 -0.16836,-0.168358 0,-0.47619 0,-0.714285 0,-0.238096 -0.16836,-0.545927 0,-0.714286 0.16836,-0.168359 0.54593,0.168359 0.71428,0 0.16836,-0.168359 0,-0.476191 0,-0.714286 0,-0.173233 0.023,-2.119886 0,-2.142857 -0.16835,-0.168359 -0.50132,0.106479 -0.71428,0 -1.52381,-0.761905 0.27161,-1.083647 -2.14286,-1.428571 -1.17851,-0.168359 -2.39014,0.14766 -3.57143,0 -0.74711,-0.09339 -1.39454,-0.63114 -2.14285,-0.714286 -1.68623,-0.187358 -3.8692,0 -5.71429,0 -0.17323,0 -2.11989,-0.02297 -2.14286,0 -0.16836,0.168359 0.16836,0.545927 0,0.714286 -0.16836,0.168358 -0.54592,-0.168359 -0.71428,0 -0.16836,0.168358 0,0.47619 0,0.714285 0,0.238096 0,0.476191 0,0.714286 0,2.380952 0,4.761905 0,7.142857 0,0.173234 0.023,2.119886 0,2.142857 -0.16836,0.168359 -0.54593,-0.168358 -0.71429,0 -0.16836,0.168359 0.16836,0.545927 0,0.714286 -0.16836,0.168359 -0.54593,-0.168359 -0.71428,0 -0.16836,0.168359 0.16835,0.545927 0,0.714286 -0.16836,0.168359 -0.54593,-0.168359 -0.71429,0 -0.33672,0.336717 0.21296,1.002654 0,1.428571 -0.15058,0.30117 -0.5637,0.413117 -0.71429,0.714286 -0.1416,0.283208 0.14603,1.996831 0,2.142857 -0.16835,0.168359 -0.54592,-0.168359 -0.71428,0 -0.16836,0.168359 0,0.476191 0,0.714286 0,0.238095 0,0.47619 0,0.714286 0,2.857142 0,5.714285 0,8.571428 0,1.190476 0,2.380952 0,3.571429 0,0.238095 -0.16836,0.545927 0,0.714285 0.16836,0.168359 0.54593,-0.168358 0.71428,0 0.33672,0.336718 -0.15058,0.976818 0,1.428572 1.58731,4.761905 -0.39682,-1.666667 2.14286,2.142857 0.26414,0.396214 -0.15058,0.976817 0,1.428571 0.10648,0.319439 0.5637,0.413117 0.71429,0.714286 0.78958,1.579156 0.71428,1.63962 0.71428,2.857143 0,0.238095 0,0.47619 0,0.714286 0,0.238095 -0.16836,0.545927 0,0.714285 0.16836,0.168359 0.54593,-0.168358 0.71429,0 0.33672,0.336718 -0.33672,1.091854 0,1.428572 0.16836,0.168359 0.54593,-0.168359 0.71428,0 0.023,0.02297 0,1.969624 0,2.142857 0,1.305071 -0.17131,0.714286 -1.42857,0.714286 -2.92337,0 2.10201,0.168358 -1.42857,-0.714286 -0.69296,-0.17324 -1.4499,0.17324 -2.14286,0 -0.32666,-0.08167 -0.43412,-0.527508 -0.71428,-0.714286 -0.44298,-0.295321 -0.97205,-0.440369 -1.42857,-0.714285 -0.73613,-0.441677 -1.37503,-1.044655 -2.14286,-1.428572 -0.67343,-0.336717 -1.45081,-0.417695 -2.14286,-0.714286 -1.46805,-0.629164 -2.80276,-1.549675 -4.28571,-2.142857 -0.69907,-0.279628 -1.44379,-0.434657 -2.14286,-0.714285 -0.49432,-0.197728 -0.93425,-0.516559 -1.42857,-0.714286 -0.8226,-0.32904 -2.34375,-0.401795 -2.85714,-1.428572 -0.22531,-0.450621 0.22531,-3.120807 0,-3.571428 -0.15059,-0.301169 -0.5637,-0.413117 -0.71429,-0.714286 -0.0399,-0.07972 -0.0399,-3.491703 0,-3.571428 0.15059,-0.30117 0.5637,-0.413117 0.71429,-0.714286 0.10648,-0.212959 -0.10648,-0.501327 0,-0.714286 0.30117,-0.602339 1.05501,-0.86824 1.42857,-1.428571 2.58949,-5.178987 -0.75292,1.129385 1.42857,-2.142857 0.29532,-0.442982 0.33782,-1.05211 0.71429,-1.428572 0.16835,-0.168359 0.54592,0.168359 0.71428,0 0.33672,-0.336717 -0.42592,-1.215612 0,-1.428571 0.42592,-0.212959 1.00266,0.212959 1.42857,0 0.21296,-0.10648 -0.0753,-0.488409 0,-0.714286 0.33672,-1.010153 1.03312,-1.868506 1.42857,-2.857143 0.27963,-0.699072 0.37757,-1.469422 0.71429,-2.142857 0.38392,-0.767834 1.19273,-1.317423 1.42857,-2.142857 0.26164,-0.915737 -0.18678,-1.923257 0,-2.857143 0.066,-0.330179 0.63262,-0.387622 0.71429,-0.714286 0.17324,-0.692959 -0.22588,-1.465226 0,-2.142857 0.0753,-0.225877 0.54592,0.168359 0.71428,0 0.16836,-0.168359 -0.10648,-0.501327 0,-0.714286 0.15059,-0.301169 0.60781,-0.394847 0.71429,-0.714285 0.22588,-0.677631 0,-1.428572 0,-2.142858 0,-1.666666 0,-3.333333 0,-5 0,-0.238095 0,-0.47619 0,-0.714285 0,-0.238095 -0.16836,-0.545927 0,-0.714286 0.16836,-0.168359 0.50133,0.106479 0.71428,0 2.17826,-1.089129 -1.30638,-0.56626 2.14286,-1.428571 0.46197,-0.115494 0.97682,0.150584 1.42857,0 0.31944,-0.10648 0.39485,-0.607807 0.71429,-0.714286 0.32697,-0.108991 3.17274,0 3.57143,0 2.85714,0 5.71428,0 8.57143,0 0.71393,0 2.96033,0.152774 3.57142,0 0.73045,-0.182611 1.40456,-0.566625 2.14286,-0.714286 0.46694,-0.09339 0.95238,0 1.42857,0 1.19048,0 2.39015,0.147661 3.57143,0 2.25854,1.398406 3.29023,-1.143609 5,-1.428571 0.93942,-0.156571 1.91772,0.15657 2.85714,0 0.52516,-0.08753 0.91207,-0.585161 1.42858,-0.714286 0.46197,-0.115493 0.96659,0.115493 1.42857,0 0.5165,-0.129125 0.93425,-0.516558 1.42857,-0.714286 0.69907,-0.279628 1.42857,-0.47619 2.14286,-0.714285"
         style="fill:none;fill-rule:evenodd;stroke:#000000;stroke-width:4.01948855;stroke-linecap:butt;stroke-linejoin:miter;stroke-opacity:1;stroke-miterlimit:4;stroke-dasharray:none" />
      <path
         inkscape:connector-curvature="0"
         id="path3358"
         d="m 138.57143,62.362204 c 1.19047,1.190476 2.38095,2.380952 3.57143,3.571428 0.23809,0.238095 0.39484,0.607807 0.71428,0.714286 0.003,0.0011 2.14218,-6.82e-4 2.14286,0 0.16836,0.168359 -0.16836,0.545927 0,0.714286 0.33672,0.336717 1.00265,-0.212959 1.42857,0 0.30117,0.150584 0.41312,0.563701 0.71429,0.714285 0.21738,0.108691 1.82117,0 2.14285,0 1.42858,0 2.85715,0 4.28572,0 1.19047,0 2.38095,0 3.57143,0 0.23809,0 0.54592,0.168359 0.71428,0 0.16836,-0.168358 -0.16836,-0.545927 0,-0.714285 0.35715,-0.357143 1.78572,0.357143 2.14286,0 0.33672,-0.336718 -0.33672,-1.091854 0,-1.428572 0.16836,-0.168359 0.54593,0.168359 0.71429,0 0.16835,-0.168359 -0.16836,-0.545927 0,-0.714285 0.33671,-0.336718 1.09185,0.336717 1.42857,0 0.0324,-0.03237 0,-3.234645 0,-3.571429 0,-1.904762 0,-3.809524 0,-5.714286 0,-0.238095 -0.16836,-0.545927 0,-0.714285 0.16836,-0.168359 0.54592,0.168358 0.71428,0 0.22118,-0.221177 -0.22117,-3.350253 0,-3.571429 0.16836,-0.168359 0.54593,0.168359 0.71429,0 0.33672,-0.336718 -0.33672,-1.091854 0,-1.428571 0.16836,-0.168359 0.50133,0.106479 0.71428,0 0.30117,-0.150585 0.41312,-0.563702 0.71429,-0.714286 0.42592,-0.212959 1.09185,0.336717 1.42857,0 0.16836,-0.168359 -0.16836,-0.545927 0,-0.714286 0.16836,-0.168359 0.50133,0.10648 0.71429,0 0.30117,-0.150585 0.41311,-0.563701 0.71428,-0.714286 0.42592,-0.212958 1.09186,0.336718 1.42857,0 0.16836,-0.168358 -0.16835,-0.545927 0,-0.714285 0.33672,-0.336718 1.09186,0.336717 1.42858,0 0.16835,-0.168359 -0.16836,-0.545927 0,-0.714286 0.16835,-0.168359 0.54592,0.168359 0.71428,0 0.16836,-0.168359 -0.16836,-0.545927 0,-0.714286 0.16836,-0.168359 0.54593,0.168359 0.71429,0 0.33671,-0.336717 -0.33672,-1.091854 0,-1.428571 0.16836,-0.168359 0.54592,0.168359 0.71428,0 0.16836,-0.168359 0,-0.476191 0,-0.714286 0,-0.238095 -0.16836,-0.545927 0,-0.714286 0.16836,-0.168358 0.54593,0.168359 0.71429,0 0.16836,-0.168358 -0.10648,-0.501326 0,-0.714285 0.15058,-0.30117 0.5637,-0.413117 0.71428,-0.714286 0.10648,-0.212959 -0.16835,-0.545927 0,-0.714286 0.16836,-0.168359 0.54593,0.168359 0.71429,0 0.35714,-0.357143 -0.35714,-1.785714 0,-2.142857 0.16836,-0.168359 0.54593,0.168359 0.71429,0 0.47642,-0.476427 -0.47643,-0.952145 0,-1.428571 0.33671,-0.336718 1.09185,0.336717 1.42857,0 0.33671,-0.336718 -0.33672,-1.091854 0,-1.428572 0.16836,-0.168359 0.54592,0.168359 0.71428,0 0.16836,-0.168359 -0.10648,-0.501327 0,-0.714285 0.88265,-1.765289 0.71429,0.246555 0.71429,-1.428572"
         style="fill:none;fill-rule:evenodd;stroke:#000000;stroke-width:4.01948855;stroke-linecap:butt;stroke-linejoin:miter;stroke-opacity:1;stroke-miterlimit:4;stroke-dasharray:none" />
      <path
         inkscape:connector-curvature="0"
         id="path3360"
         d="m 145.71429,37.362204 c -0.95239,0 -1.90477,0 -2.85715,0 0,0.238095 0.16836,0.545927 0,0.714285 -0.16836,0.168359 -0.54592,-0.168358 -0.71428,0 -0.0324,0.03237 0,3.234645 0,3.571429 0,0.238095 0,0.47619 0,0.714286 0,0.238095 -0.16836,0.545927 0,0.714285 0.16836,0.168359 0.54592,-0.168358 0.71428,0 0.47702,0.477019 -0.47702,0.951553 0,1.428572 0.33672,0.336717 1.09186,-0.336718 1.42857,0 0.16836,0.168359 -0.16835,0.545927 0,0.714286 0.16836,0.168358 0.47619,0 0.71429,0 0.2381,0 0.47619,0 0.71429,0 1.19047,0 2.38095,0 3.57142,0 0.2381,0 0.54593,0.168358 0.71429,0 0.16836,-0.168359 -0.16836,-0.545927 0,-0.714286 0.16836,-0.168359 0.54593,0.168359 0.71429,0 0.33671,-0.336718 -0.33672,-1.091854 0,-1.428572 0.16835,-0.168358 0.54592,0.168359 0.71428,0 0.16836,-0.168358 0,-0.47619 0,-0.714285 0,-1.190477 0,-2.380953 0,-3.571429"
         style="fill:none;fill-rule:evenodd;stroke:#000000;stroke-width:4.01948855;stroke-linecap:butt;stroke-linejoin:miter;stroke-opacity:1;stroke-miterlimit:4;stroke-dasharray:none" />
      <path
         inkscape:connector-curvature="0"
         id="path3362"
         d="m 166.42857,38.076489 c 0.36503,4.311573 -2.71296,-0.144179 -3.57143,0.714286 -0.16836,0.168359 0.16836,0.545927 0,0.714286 -0.33671,0.336717 -1.09185,-0.336718 -1.42857,0 -0.16836,0.168359 0,0.47619 0,0.714286 0,0.238095 0,0.47619 0,0.714285 0,0.238095 0,0.476191 0,0.714286 0,0.238095 -0.16836,0.545927 0,0.714286 0.16836,0.168358 0.47619,0 0.71429,0 0.23809,0 0.47619,0 0.71428,0 1.19048,0 2.38096,0 3.57143,0 0.2381,0 0.54593,0.168358 0.71429,0 0.0701,-0.07007 0.0977,-1.752089 0,-2.142857 -0.18261,-0.730443 -0.47619,-1.428572 -0.71429,-2.142858 z"
         style="fill:none;fill-rule:evenodd;stroke:#000000;stroke-width:4.01948855;stroke-linecap:butt;stroke-linejoin:miter;stroke-opacity:1;stroke-miterlimit:4;stroke-dasharray:none" />
    </g>
    <g
       id="g4159">
      <path
         inkscape:connector-curvature="0"
         id="path3349"
         d="m 121.47084,54.078952 c -0.33671,0 -0.67343,0 -1.01015,0 -0.0842,0 -0.16836,0 -0.25254,0 -0.0842,0 -0.19301,0.05952 -0.25254,0 -0.0595,-0.05952 0.0595,-0.193015 0,-0.252538 -0.12626,-0.126269 -0.63134,0.126269 -0.75761,0 -0.0595,-0.05952 0.0595,-0.193015 0,-0.252538 -0.11905,-0.119048 -0.35449,0.07529 -0.50508,0 -0.10648,-0.05324 -0.14605,-0.199299 -0.25253,-0.252539 -0.0753,-0.03765 -0.16836,0 -0.25254,0 -0.0842,0 -0.16836,0 -0.25254,0 -0.4209,0 -0.84179,0 -1.26269,0 -0.4209,0 -0.84179,0 -1.26269,0 -0.0842,0 -0.16836,0 -0.25254,0 -0.0842,0 -0.17725,-0.03765 -0.25254,0 -0.10648,0.05324 -0.14606,0.199299 -0.25254,0.252539 -0.13699,0.0685 -0.94105,-0.0691 -1.01015,0 -0.0595,0.05952 0.0595,0.193014 0,0.252538 -0.0842,0 -0.16836,0 -0.25254,0 -0.0842,0 -0.19301,-0.05952 -0.25253,0 -0.0102,0.01016 0,0.917411 0,1.010152 0,0.113733 -0.0384,0.680759 0,0.757615 0.5255,1.051003 -0.0174,-0.269973 0.50507,0.252538 0.0595,0.05952 -0.0595,0.193014 0,0.252538 0.0595,0.05952 0.19302,-0.05952 0.25254,0 0.0595,0.05952 -0.0595,0.193014 0,0.252538 0.0595,0.05952 0.16836,0 0.25254,0 0.0842,0 0.19301,-0.05952 0.25254,0 0.0595,0.05952 -0.0595,0.193014 0,0.252538 0.0595,0.05952 0.19301,-0.05952 0.25253,0 0.0595,0.05952 -0.0595,0.193014 0,0.252538 0.0595,0.05952 0.19302,-0.05952 0.25254,0 0.0595,0.05952 -0.0595,0.193015 0,0.252538 0.0842,0 0.16836,0 0.25254,0 0.0842,0 0.19301,-0.05952 0.25254,0 0.0595,0.05952 -0.0595,0.193015 0,0.252539 0.0842,0 0.16836,0 0.25254,0 0.0842,0 0.19301,-0.05952 0.25253,0 0.0595,0.05952 -0.0753,0.214892 0,0.252538 0.15059,0.07529 0.33672,0 0.50508,0 0.0842,0 0.19302,-0.05952 0.25254,0 0.0595,0.05952 -0.0595,0.193014 0,0.252538 0.0595,0.05952 0.16836,0 0.25254,0 0.58925,0 1.17851,0 1.76776,0 0.4209,0 0.8418,0 1.26269,0 0.0842,0 0.19302,0.05952 0.25254,0 0.0595,-0.05952 -0.0595,-0.193015 0,-0.252538 0.11905,-0.119048 0.38603,0.119047 0.50508,0 0.0595,-0.05952 -0.0595,-0.193015 0,-0.252538 0.0595,-0.05952 0.19301,0.05952 0.25254,0 0.0595,-0.05952 -0.0595,-0.193015 0,-0.252539 0.12627,-0.126269 0.63134,0.126269 0.75761,0 0.11905,-0.119047 -0.11905,-0.386028 0,-0.505076 0.0595,-0.05952 0.19302,0.05952 0.25254,0 0.0595,-0.05952 0,-0.168359 0,-0.252538 0,-0.770008 -0.25595,-0.0034 -0.50508,-0.252538 -0.0252,-0.02525 -0.0252,-0.732361 0,-0.757615 0.0595,-0.05952 0.19302,0.05952 0.25254,0 0.0595,-0.05952 0.0842,-0.252538 0,-0.252538 -0.11905,0 -0.16836,0.168359 -0.25254,0.252538"
         style="fill:none;fill-rule:evenodd;stroke:#000000;stroke-width:1px;stroke-linecap:butt;stroke-linejoin:miter;stroke-opacity:1" />
      <path
         inkscape:connector-curvature="0"
         id="path3351"
         d="m 123.23861,56.856871 c 2.49368,0.498737 0.0336,-0.073 2.52538,0.757615 0.32927,0.109756 0.69114,0.115816 1.01015,0.252538 1.72826,0.740682 -0.18737,0.331963 1.51523,0.757614 0.20928,0.05232 0.99677,0 1.26269,0 0.92598,0 1.85195,0 2.77792,0 1.17851,0 2.35703,0 3.53554,0 0.10623,0 1.4401,0.03756 1.51523,0 0.21296,-0.106479 0.2792,-0.429784 0.50507,-0.505076 0.001,-3.82e-4 0.75738,2.41e-4 0.75762,0 0.0595,-0.05952 -0.0595,-0.193014 0,-0.252538 0.0691,-0.0691 0.87315,0.0685 1.01015,0 0.10648,-0.05324 0.1396,-0.214892 0.25254,-0.252538 0.18275,-0.06092 0.9269,0.08325 1.01015,0 0.0595,-0.05952 -0.0595,-0.193015 0,-0.252538 0.11905,-0.119048 0.38603,0.119047 0.50508,0 0.0595,-0.05952 -0.0595,-0.193015 0,-0.252539 0.12627,-0.126269 0.63134,0.126269 0.75761,0 0.0595,-0.05952 -0.0595,-0.193014 0,-0.252538 0.12627,-0.126269 0.63135,0.126269 0.75762,0 0.0595,-0.05952 -0.0595,-0.193014 0,-0.252538 0.12626,-0.126269 0.63134,0.126269 0.75761,0 0.0595,-0.05952 -0.0595,-0.193014 0,-0.252538 0.11905,-0.119048 0.38603,0.119048 0.50508,0 0.11904,-0.119048 -0.11905,-0.386029 0,-0.505076 0.0595,-0.05952 0.19301,0.05952 0.25253,0 0.0595,-0.05952 -0.0595,-0.193015 0,-0.252538 0.11905,-0.119048 0.38603,0.119047 0.50508,0 0.16827,-0.168274 -0.16827,-0.336803 0,-0.505077 0.0595,-0.05952 0.19301,0.05952 0.25254,0 0.0595,-0.05952 -0.0595,-0.193014 0,-0.252538 0.0595,-0.05952 0.19301,0.05952 0.25254,0 0.0595,-0.05952 -0.0595,-0.193014 0,-0.252538 0.0595,-0.05952 0.19301,0.05952 0.25253,0 0.11905,-0.119048 -0.0753,-0.354492 0,-0.505076 0.0532,-0.10648 0.1993,-0.146059 0.25254,-0.252538 0.0377,-0.07529 -0.0595,-0.193015 0,-0.252538 0.0595,-0.05952 0.19302,0.05952 0.25254,0 0.0595,-0.05952 -0.0595,-0.193015 0,-0.252539 0.0595,-0.05952 0.19302,0.05952 0.25254,0 0.11905,-0.119047 -0.11905,-0.386028 0,-0.505076 0.0595,-0.05952 0.19301,0.05952 0.25254,0 0.11904,-0.119048 -0.11905,-0.386029 0,-0.505076 0.0595,-0.05952 0.19301,0.05952 0.25254,0 0.11904,-0.119048 -0.11905,-0.386029 0,-0.505076 0.0595,-0.05952 0.19301,0.05952 0.25253,0 0.0608,-0.06077 -0.0608,-0.949384 0,-1.010153 0.0595,-0.05952 0.19302,0.05952 0.25254,0 0.0595,-0.05952 -0.0376,-0.177246 0,-0.252538 0.0532,-0.10648 0.1993,-0.146059 0.25254,-0.252538 0.0753,-0.150585 -0.0753,-0.354492 0,-0.505077 0.0532,-0.106479 0.1993,-0.146058 0.25254,-0.252538 0.0384,-0.07686 0,-0.643882 0,-0.757614 0,-0.589256 0,-1.178511 0,-1.767767 0,-0.505076 0,-1.010153 0,-1.515229 0,-0.08418 0.0595,-0.193014 0,-0.252538 -0.0595,-0.05952 -0.19302,0.05952 -0.25254,0 -0.0595,-0.05952 0.0376,-0.177246 0,-0.252538 -0.0532,-0.10648 -0.1993,-0.146059 -0.25254,-0.252538 -0.0376,-0.07529 0.0595,-0.193015 0,-0.252538 -0.0595,-0.05952 -0.19301,0.05952 -0.25254,0 -0.0516,-0.05163 0.0501,-0.657485 0,-0.757615 -0.0532,-0.106479 -0.19929,-0.146059 -0.25253,-0.252538 -0.0377,-0.07529 0.0376,-0.177246 0,-0.252538 -0.0532,-0.10648 -0.14606,-0.199299 -0.25254,-0.252538 -0.0753,-0.03765 -0.21489,0.07529 -0.25254,0 -0.0753,-0.150585 0,-0.336718 0,-0.505076 0,-0.08418 0.0595,-0.193015 0,-0.252539 -0.0595,-0.05952 -0.19302,0.05952 -0.25254,0 -0.0595,-0.05952 0.0595,-0.193014 0,-0.252538 -0.0595,-0.05952 -0.19301,0.05952 -0.25254,0 -0.11904,-0.119047 0.11905,-0.386028 0,-0.505076 -0.11904,-0.119048 -0.38603,0.119048 -0.50507,0 -0.0595,-0.05952 0.0376,-0.177246 0,-0.252538 -0.0532,-0.10648 -0.1993,-0.146059 -0.25254,-0.252538 -0.0753,-0.150585 0.11905,-0.386029 0,-0.505077 -0.0595,-0.05952 -0.19302,0.05952 -0.25254,0 -0.0595,-0.05952 0.0595,-0.193014 0,-0.252538 -0.11905,-0.119047 -0.38603,0.119048 -0.50508,0 -0.0595,-0.05952 0.0595,-0.193014 0,-0.252538 -0.0595,-0.05952 -0.19301,0.05952 -0.25253,0 -0.11905,-0.119047 0.11904,-0.386029 0,-0.505076 -0.0595,-0.05952 -0.19302,0.05952 -0.25254,0 -0.0595,-0.05952 0.0595,-0.193014 0,-0.252538 -0.0595,-0.05952 -0.25254,0.08418 -0.25254,0 0,-0.08418 0.16836,0 0.25254,0 0.0842,0 0.16836,0 0.25254,0 0.58925,0 1.17851,0 1.76776,0 0.37588,0 0.32234,-0.03765 0.75762,0.252538 0.0991,0.06604 0.14606,0.199298 0.25254,0.252538 0.20203,0.101015 0.55558,-0.101015 0.75761,0 0.0753,0.03765 -0.0595,0.193014 0,0.252538 0.0595,0.05952 0.17725,-0.03765 0.25254,0 0.11694,0.05847 0.86162,0.861624 1.01015,1.010153 0.0842,0.08418 0.13349,0.252538 0.25254,0.252538 0.0842,0 0.0595,-0.193014 0,-0.252538 -0.0595,-0.05952 -0.21489,0.07529 -0.25254,0 -0.0753,-0.150585 0,-0.336718 0,-0.505077 0,-0.08418 0.0595,-0.193014 0,-0.252538 -0.33672,-0.336717 -0.24233,0.535715 -0.50508,-0.252538 -0.0532,-0.159719 0.0408,-0.341744 0,-0.505076 -0.0457,-0.182611 -0.20688,-0.322466 -0.25253,-0.505076 -0.0308,-0.123035 0.0668,-0.876618 0,-1.010153 -0.0532,-0.106479 -0.2149,-0.1396 -0.25254,-0.252538 -3.8e-4,-0.0011 2.4e-4,-0.757373 0,-0.757614 -0.0595,-0.05952 -0.19302,0.05952 -0.25254,0 -0.0595,-0.05952 0.0595,-0.193015 0,-0.252539 -0.0595,-0.05952 -0.19301,0.05952 -0.25254,0 -0.12627,-0.126269 0.12627,-0.631345 0,-0.757614 -0.0691,-0.0691 -0.87315,0.0685 -1.01015,0 -0.10648,-0.05324 -0.1396,-0.214892 -0.25254,-0.252538 -0.23958,-0.07986 -0.50508,0 -0.75761,0 -0.58926,0 -1.17851,0 -1.76777,0 -0.67344,0 -1.34687,0 -2.02031,0 -0.0842,0 -0.19301,-0.05952 -0.25253,0 -0.0595,0.05952 -0.0595,0.193014 0,0.252538 0.0595,0.05952 0.17724,0.03765 0.25253,0 0.10648,-0.05324 0.16836,-0.168359 0.25254,-0.252538 0.16836,-0.168359 0.3146,-0.362219 0.50508,-0.505076 0.15058,-0.112939 0.3265,-0.193015 0.50508,-0.252539 0.0798,-0.02662 0.19301,0.05952 0.25253,0 0.0595,-0.05952 -0.0595,-0.193014 0,-0.252538 0.11905,-0.119047 0.35449,0.07529 0.50508,0 0.10648,-0.05324 0.14606,-0.199298 0.25254,-0.252538 0.0753,-0.03765 0.17724,0.03765 0.25254,0 0.10648,-0.05324 0.1396,-0.214892 0.25253,-0.252538 0.001,-3.82e-4 0.75738,2.41e-4 0.75762,0 0.0595,-0.05952 -0.0595,-0.193014 0,-0.252538 0.0608,-0.06077 0.94938,0.06077 1.01015,0 0.0595,-0.05952 -0.0595,-0.193014 0,-0.252538 0.0114,-0.01145 1.14362,0 1.26269,0 0.0842,0 0.19302,0.05952 0.25254,0 0.0595,-0.05952 0,-0.168359 0,-0.252538 0,-0.08418 0.0376,-0.177246 0,-0.252539 -0.26666,-0.533328 -0.71922,-0.107071 -1.01015,-0.252538 -0.10648,-0.05324 -0.16836,-0.168358 -0.25254,-0.252538 -0.16836,0 -0.34536,0.05324 -0.50508,0 -0.11294,-0.03765 -0.16836,-0.168359 -0.25254,-0.252538 -0.16835,-0.08418 -0.32246,-0.206885 -0.50507,-0.252538 -0.19702,-0.04926 -1.22047,0 -1.51523,0 -0.13206,0 -0.94375,-0.0332 -1.01015,0 -0.10648,0.05324 -0.14606,0.199298 -0.25254,0.252538 -0.15059,0.07529 -0.38603,-0.119048 -0.50508,0 -0.0595,0.05952 0.0595,0.193014 0,0.252538 -0.0595,0.05952 -0.19301,0.05952 -0.25254,0 -0.0595,-0.05952 0,-0.168359 0,-0.252538 0,-0.09274 -0.0102,-0.99999 0,-1.010152 0.0595,-0.05952 0.19302,0.05952 0.25254,0 0.0595,-0.05952 0,-0.168359 0,-0.252539 0,-0.08418 0.0595,-0.193014 0,-0.252538 -0.0595,-0.05952 -0.16836,0 -0.25254,0 -1.72082,0 0.10461,-0.178571 -1.26269,0.505077 -0.15058,0.07529 -0.34535,-0.05324 -0.50507,0 -0.11294,0.03765 -0.1396,0.214891 -0.25254,0.252538 -0.15972,0.05324 -0.33672,0 -0.50508,0 -0.0842,0 -0.17724,-0.03765 -0.25254,0 -0.86221,0.431109 0.78104,0.252538 -1.01015,0.252538 -0.0842,0 -0.19301,0.05952 -0.25254,0 -0.11904,-0.119048 0.0532,-0.345357 0,-0.505076 -0.11904,-0.357143 -0.41377,-0.644932 -0.50507,-1.010153 -0.0408,-0.163332 0.0532,-0.345357 0,-0.505076 -0.31206,-0.936186 -0.25254,0.307831 -0.25254,-0.505077 0,-0.08418 0,-0.168358 0,-0.252538 0,-0.08418 -0.0842,-0.252538 0,-0.252538 0.0842,0 -0.0842,0.252538 0,0.252538 0.18823,0 0.33206,-0.17839 0.50508,-0.252538 2.76649,-1.185642 -0.0817,0.02725 2.27284,-0.757614 0.17857,-0.05952 0.3265,-0.193015 0.50508,-0.252538 0.0799,-0.02662 0.33671,0 0.25253,0 -0.0868,0 -1.6275,-0.04676 -1.76776,0 -0.17857,0.05952 -0.3205,0.215623 -0.50508,0.252538 -0.33018,0.06604 -0.67343,0 -1.01015,0 -0.67344,0 -1.34687,0 -2.02031,0 -0.25254,0 -0.50507,0 -0.75761,0 -0.0842,0 -0.19302,-0.05952 -0.25254,0 -0.0595,0.05952 0,0.168358 0,0.252538 0,0.08418 0,0.168359 0,0.252538 0,0.09274 0.0102,0.99999 0,1.010153 -0.0595,0.05952 -0.19301,-0.05952 -0.25254,0 -0.0608,0.06077 0.0608,0.949384 0,1.010152 -0.0595,0.05952 -0.19301,-0.05952 -0.25254,0 -0.0252,0.02525 0.11786,0.875466 -0.25253,0.505076 -0.0595,-0.05952 0.0595,-0.193014 0,-0.252538 -0.0595,-0.05952 -0.19302,0.05952 -0.25254,0 -0.0887,-0.08865 0.0872,-1.088254 0,-1.26269 -0.0532,-0.10648 -0.1993,-0.146059 -0.25254,-0.252539 -0.0753,-0.150584 0.11905,-0.386028 0,-0.505076 -0.37039,-0.370389 -0.22728,0.479823 -0.25254,0.505076 -0.0595,0.05952 -0.17724,-0.03765 -0.25254,0 -0.10648,0.05324 -0.14606,0.199299 -0.25253,0.252539 -0.0518,0.0259 -0.722,0.03561 -0.75762,0 -0.12627,-0.12627 0.12627,-0.631346 0,-0.757615 -0.0595,-0.05952 -0.16836,0 -0.25254,0 -0.0842,0 -0.17724,-0.03765 -0.25254,0 -0.10647,0.05324 -0.16835,0.168359 -0.25253,0.252538 -0.0842,0.08418 -0.1993,0.146059 -0.25254,0.252538 -0.0376,0.07529 0.0595,0.193015 0,0.252539 -0.0595,0.05952 -0.19302,-0.05952 -0.25254,0 -0.11224,0.112239 0.19642,0.477016 -0.25254,0.252538 -0.10648,-0.05324 -0.16836,-0.168359 -0.25254,-0.252538 -0.25253,-0.252539 -0.50507,-0.505077 -0.75761,-0.757615 -0.16836,-0.168359 -0.3986,-0.292117 -0.50508,-0.505076 -0.0753,-0.150585 0.0753,-0.354492 0,-0.505076 -0.0376,-0.07529 -0.16836,0 -0.25253,0 -0.4209,0 -0.8418,0 -1.2627,0 -0.0842,0 -0.19301,0.05952 -0.25253,0 -0.0782,-0.0782 0.0782,-1.184493 0,-1.262691 -0.0595,-0.05952 -0.16836,0 -0.25254,0 -0.0842,0 -0.16836,0 -0.25254,0 -1.18947,0 -0.99855,-0.06604 -2.27284,0.252538 -0.25825,0.06456 -0.49937,0.187976 -0.75762,0.252538 -0.16333,0.04083 -0.35449,-0.07529 -0.50507,0 -0.10648,0.05324 -0.14606,0.199299 -0.25254,0.252538 -0.0753,0.03765 -0.17725,-0.03765 -0.25254,0 -0.38512,0.192558 -0.25254,0.66364 -0.25254,1.010153 0,0.08418 -0.0595,0.193014 0,0.252538 0.0595,0.05952 0.17725,-0.03765 0.25254,0 0.10648,0.05324 0.16836,0.168359 0.25254,0.252538 0.16836,0.168359 0.30697,0.373005 0.50507,0.505076 0.07,0.04669 0.19302,-0.05952 0.25254,0 0.0595,0.05952 -0.0595,0.193015 0,0.252539 0.11905,0.119047 0.38603,-0.119048 0.50508,0 0.73652,0.736519 -0.73652,-0.231443 0,0.505076 0.11905,0.119047 0.38603,-0.119048 0.50507,0 0.0595,0.05952 -0.0595,0.193014 0,0.252538 0.0595,0.05952 0.17725,-0.03765 0.25254,0 0.10648,0.05324 0.14606,0.199298 0.25254,0.252538 0.0753,0.03765 0.19302,-0.05952 0.25254,0 0.0595,0.05952 -0.0595,0.193014 0,0.252538 0.0595,0.05952 0.19301,-0.05952 0.25254,0 0.0595,0.05952 -0.0595,0.193015 0,0.252538 0.0595,0.05952 0.19301,-0.05952 0.25254,0 0.11904,0.119048 -0.11905,0.386029 0,0.505077 0.0595,0.05952 0.19301,-0.05952 0.25253,0 0.0595,0.05952 0,0.168358 0,0.252538 0,0.08418 0.0595,0.193014 0,0.252538 -0.0516,0.05163 -0.65748,-0.05006 -0.75761,0 -0.10648,0.05324 -0.16836,0.168359 -0.25254,0.252538 -0.16836,0 -0.35449,-0.07529 -0.50508,0 -0.0753,0.03765 0.0595,0.193014 0,0.252538 -0.0595,0.05952 -0.19301,-0.05952 -0.25253,0 -0.0595,0.05952 0.0595,0.193015 0,0.252538 -0.12627,0.126269 -0.63135,-0.126269 -0.75762,0 -0.0595,0.05952 0.0595,0.193015 0,0.252538 -0.0595,0.05952 -0.17724,-0.03765 -0.25254,0 -0.10648,0.05324 -0.14605,0.199299 -0.25253,0.252539 -0.137,0.0685 -0.94106,-0.0691 -1.01016,0 -0.0595,0.05952 0.0595,0.193014 0,0.252538 -0.0114,0.01145 -1.14362,0 -1.26269,0 -0.0842,0 -0.19301,0.05952 -0.25254,0 -0.0595,-0.05952 0.0595,-0.193015 0,-0.252538 -0.0595,-0.05952 -0.19301,0.05952 -0.25253,0 -0.0595,-0.05952 0,-0.168359 0,-0.252539 0,-0.171773 -0.0335,-1.212419 0,-1.26269 0.10441,-0.156618 0.40066,-0.09592 0.50507,-0.252538 0.0657,-0.09862 -0.16554,-0.757615 0.25254,-0.757615 0.0842,0 0.07,0.205844 0,0.252538 -1.42082,0.947215 -0.13416,-0.716176 -1.51523,1.010153 -0.11758,0.146983 -0.11944,0.371977 -0.25254,0.505076 -0.1331,0.133099 -0.3265,0.193015 -0.50507,0.252538 -0.0799,0.02662 -0.19302,-0.05952 -0.25254,0 -0.0595,0.05952 0,0.168359 0,0.252538 0,0.08418 0,0.168359 0,0.252539 0,0.08418 -0.0376,0.177245 0,0.252538 0.0335,0.06705 0.69056,0.724088 0.75761,0.757614 0.0753,0.03765 0.19302,-0.05952 0.25254,0 0.0595,0.05952 0,0.168359 0,0.252538 0,0.113733 0.0384,0.680759 0,0.757615 -0.5255,1.051003 0.0174,-0.269973 -0.50507,0.252538 -0.0595,0.05952 0.0595,0.193014 0,0.252538 -0.0595,0.05952 -0.17725,-0.03765 -0.25254,0 -0.21296,0.106479 -0.29212,0.398597 -0.50508,0.505076 -0.0753,0.03765 -0.19301,-0.05952 -0.25254,0 -0.0595,0.05952 0.0595,0.193015 0,0.252538 -0.0595,0.05952 -0.25253,0.08418 -0.25253,0 0,-0.08418 0.17724,-0.03765 0.25253,0 0.10648,0.05324 0.1396,0.214892 0.25254,0.252539 10e-4,3.81e-4 0.75737,-2.42e-4 0.75762,0 0.0595,0.05952 -0.0595,0.193014 0,0.252538 0.0691,0.0691 0.87315,-0.0685 1.01015,0 0.10648,0.05324 0.14606,0.199298 0.25254,0.252538 0.0753,0.03765 0.19301,-0.05952 0.25253,0 0.0595,0.05952 -0.0595,0.193014 0,0.252538 0.0595,0.05952 0.16836,0 0.25254,0 0.0842,0 0.19302,-0.05952 0.25254,0 0.0595,0.05952 -0.0595,0.193014 0,0.252538 0.0595,0.05952 0.19302,-0.05952 0.25254,0 0.11905,0.119048 -0.11905,0.386029 0,0.505076 0.0595,0.05952 0.19301,-0.05952 0.25254,0 0.0595,0.05952 -0.0595,0.193015 0,0.252538 0.0595,0.05952 0.19301,-0.05952 0.25254,0 0.0595,0.05952 0,0.168359 0,0.252539 0,0.08418 0,0.168358 0,0.252538 0,0.06125 0.008,0.749493 0,0.757614 -0.0595,0.05952 -0.17725,-0.03765 -0.25254,0 -0.35944,0.179719 -0.14564,0.325357 -0.50508,0.505076 -0.0753,0.03765 -0.17724,-0.03765 -0.25254,0 -0.10648,0.05324 -0.14606,0.199299 -0.25254,0.252539 -0.0753,0.03765 -0.19301,-0.05952 -0.25253,0 -0.0595,0.05952 0.0595,0.193014 0,0.252538 -0.0595,0.05952 -0.19302,-0.05952 -0.25254,0 -0.0595,0.05952 0.0595,0.193014 0,0.252538 -0.0595,0.05952 -0.16836,0 -0.25254,0 0,0.08418 0.0595,0.193014 0,0.252538 -0.0595,0.05952 -0.19301,-0.05952 -0.25254,0 -0.0595,0.05952 0.0595,0.193014 0,0.252538 -0.0595,0.05952 -0.19301,-0.05952 -0.25254,0 -0.11904,0.119048 0.11905,0.386029 0,0.505076 -0.0595,0.05952 -0.19301,-0.05952 -0.25253,0 -0.0608,0.06077 0.0608,0.949384 0,1.010153 -0.0595,0.05952 -0.19302,-0.05952 -0.25254,0 -0.11905,0.119048 0.11905,0.386029 0,0.505076 -0.0595,0.05952 -0.19302,-0.05952 -0.25254,0 -0.0595,0.05952 0.0595,0.193015 0,0.252538 -0.0782,0.0782 -1.18449,-0.0782 -1.26269,0 -0.0595,0.05952 0.0595,0.193015 0,0.252538 -0.12627,0.12627 -0.63135,-0.126269 -0.75762,0 -0.0595,0.05952 0.0595,0.193015 0,0.252539 -0.0595,0.05952 -0.19301,-0.05952 -0.25253,0 -0.0595,0.05952 0,0.168358 0,0.252538 0,0.08418 -0.0595,0.193014 0,0.252538 0.11904,0.119047 0.38603,-0.119048 0.50507,0 0.0595,0.05952 0,0.168359 0,0.252538 0.0842,0 0.19302,-0.05952 0.25254,0 0.11905,0.119048 -0.0753,0.354492 0,0.505076 0.0532,0.10648 0.1993,0.146059 0.25254,0.252538 0.0376,0.07529 -0.0595,0.193015 0,0.252539 0.12627,0.126269 0.63134,-0.12627 0.75761,0 0.0595,0.05952 -0.0595,0.193014 0,0.252538 0.0595,0.05952 0.16836,0 0.25254,0 0.0842,0 0.16836,0 0.25254,0 0.4209,0 0.84179,0 1.26269,0 0.0842,0 0.19301,0.05952 0.25254,0 0.0595,-0.05952 -0.0595,-0.193015 0,-0.252538 0.11905,-0.119048 0.38603,0.119047 0.50507,0 0.0595,-0.05952 -0.0595,-0.193015 0,-0.252539 0.11905,-0.119047 0.38603,0.119048 0.50508,0 0.11905,-0.119047 -0.11905,-0.386028 0,-0.505076 0.0595,-0.05952 0.19302,0.05952 0.25254,0 0.0595,-0.05952 -0.0595,-0.193014 0,-0.252538 0.0595,-0.05952 0.17724,0.03765 0.25254,0 0.10648,-0.05324 0.14606,-0.199298 0.25254,-0.252538 0.0753,-0.03765 0.19301,0.05952 0.25253,0 0.0595,-0.05952 -0.0595,-0.193014 0,-0.252538 0.0595,-0.05952 0.17725,0.03765 0.25254,0 0.10648,-0.05324 0.14606,-0.199299 0.25254,-0.252538 0.15058,-0.07529 0.38603,0.119047 0.50508,0 0.0595,-0.05952 -0.0595,-0.193015 0,-0.252539 0.0516,-0.05163 0.65748,0.05006 0.75761,0 0.30305,-0.151522 0.45457,-0.606091 0.75761,-0.757614 0.10013,-0.05006 0.70599,0.05163 0.75762,0 0.0595,-0.05952 -0.0595,-0.193014 0,-0.252538 0.0516,-0.05163 0.65748,0.05007 0.75761,0 0.10648,-0.05324 0.14606,-0.199299 0.25254,-0.252538 0.15059,-0.07529 0.35449,0.07529 0.50508,0 0.10648,-0.05324 0.14606,-0.199299 0.25254,-0.252538 0.0753,-0.03765 0.16836,0 0.25253,0 0.0842,-0.08418 0.14606,-0.199299 0.25254,-0.252538 0.15059,-0.07529 0.38603,0.119047 0.50508,0 0.0595,-0.05952 -0.0595,-0.193015 0,-0.252539 0.0608,-0.06077 0.94938,0.06077 1.01015,0 0.0595,-0.05952 -0.0595,-0.193014 0,-0.252538 0.11905,-0.119047 0.38603,0.119048 0.50508,0 0.0595,-0.05952 -0.0595,-0.193014 0,-0.252538 0.0886,-0.08865 1.08825,0.08722 1.26269,0 0.10648,-0.05324 0.14606,-0.199298 0.25254,-0.252538 0.10013,-0.05006 0.70598,0.05163 0.75761,0 0.0595,-0.05952 -0.0595,-0.193014 0,-0.252538 0.008,-0.0081 0.69637,0 0.75762,0 0.75761,0 1.51522,0 2.27284,0 0.0842,0 0.16836,0 0.25254,0 0.0842,0 0.19301,-0.05952 0.25253,0 0.16828,0.168273 -0.16827,0.336803 0,0.505076 0.0595,0.05952 0.19302,-0.05952 0.25254,0 0.0595,0.05952 -0.0595,0.193014 0,0.252538 0.0595,0.05952 0.19302,-0.05952 0.25254,0 0.16827,0.168274 -0.16827,0.336803 0,0.505077 0.0595,0.05952 0.19302,-0.05952 0.25254,0 0.0595,0.05952 -0.0595,0.193014 0,0.252538 0.0595,0.05952 0.19301,-0.05952 0.25254,0 0.0595,0.05952 -0.0595,0.193014 0,0.252538 0.0595,0.05952 0.19301,-0.05952 0.25254,0 0.16827,0.168273 -0.16828,0.336803 0,0.505076 0.0595,0.05952 0.19301,-0.05952 0.25253,0 0.008,0.0081 0,0.696367 0,0.757614 0,0.420897 0,0.841794 0,1.262691 0,0.08418 0.0595,0.193014 0,0.252538 -0.0595,0.05952 -0.19301,-0.05952 -0.25253,0 -0.52251,0.522511 0.79846,-0.02043 -0.25254,0.505077 -0.0753,0.03765 -0.19302,-0.05952 -0.25254,0 -0.11905,0.119047 0.11905,0.386028 0,0.505076 -0.11905,0.119047 -0.38603,-0.119048 -0.50508,0 -0.52251,0.52251 0.79847,-0.02043 -0.25254,0.505076 -0.0753,0.03765 -0.19301,-0.05952 -0.25253,0 -0.0595,0.05952 0.0595,0.193014 0,0.252538 -0.0595,0.05952 -0.19302,-0.05952 -0.25254,0 -0.0595,0.05952 0.0595,0.193015 0,0.252538 -0.0595,0.05952 -0.19302,-0.05952 -0.25254,0 -0.0595,0.05952 0.0595,0.193015 0,0.252539 -0.0595,0.05952 -0.19301,-0.05952 -0.25254,0 -0.0595,0.05952 0.0595,0.193014 0,0.252538 -0.11905,0.119047 -0.38603,-0.119048 -0.50507,0 -0.16828,0.168273 0.16827,0.336802 0,0.505076 -0.0595,0.05952 -0.16836,0 -0.25254,0 0,0.08418 0.0595,0.193014 0,0.252538 -0.11905,0.119048 -0.38603,-0.119048 -0.50508,0 -0.0595,0.05952 0,0.168359 0,0.252538 -0.0842,0 -0.19301,-0.05952 -0.25254,0 -0.0595,0.05952 0.0595,0.193015 0,0.252538 -0.17155,0.171556 -0.50223,-0.258215 -0.75761,0.252538 -0.0377,0.07529 0.0595,0.193015 0,0.252539 -0.0595,0.05952 -0.16836,0 -0.25254,0 -0.0842,0 -0.16836,0 -0.25254,0 -1.01015,0 -2.0203,0 -3.03045,0 -0.50508,0 -1.01016,0 -1.51523,0 -0.0842,0 -0.19302,0.05952 -0.25254,0 -0.0595,-0.05952 0.0595,-0.193015 0,-0.252539 -0.0608,-0.06077 -0.94939,0.06077 -1.01015,0 -0.0595,-0.05952 0.0595,-0.193014 0,-0.252538 -0.11905,-0.119047 -0.38603,0.119048 -0.50508,0 -0.0595,-0.05952 0.0595,-0.193014 0,-0.252538 -0.0595,-0.05952 -0.16836,0 -0.25254,0 -0.0842,0 -0.16836,0 -0.25254,0 -0.25254,0 -0.50507,0 -0.75761,0 -0.0842,0 -0.25254,0.08418 -0.25254,0 0,-0.08418 0.33672,0 0.25254,0 -0.16836,0 -0.35449,-0.07529 -0.50508,0 -0.0753,0.03765 0.0595,0.193015 0,0.252538 -0.0595,0.05952 -0.19301,-0.05952 -0.25254,0 -0.0595,0.05952 0.0595,0.193015 0,0.252538 -0.11904,0.119048 -0.35449,-0.07529 -0.50507,0 -0.10648,0.05324 -0.14606,0.199299 -0.25254,0.252539 -0.0753,0.03765 -0.19301,-0.05952 -0.25254,0 -0.0595,0.05952 0.0595,0.193014 0,0.252538 -0.12627,0.126269 -0.63134,-0.126269 -0.75761,0 -0.0595,0.05952 0.0595,0.193014 0,0.252538 -0.0595,0.05952 -0.19302,-0.05952 -0.25254,0 -0.0595,0.05952 0.0595,0.193014 0,0.252538 -0.0595,0.05952 -0.19302,-0.05952 -0.25254,0 -0.0595,0.05952 0.0595,0.193014 0,0.252538 -0.0595,0.05952 -0.16836,0 -0.25254,0 0,0.08418 0.0595,0.193014 0,0.252538 -0.0595,0.05952 -0.19301,-0.05952 -0.25254,0 -0.0595,0.05952 0.0595,0.193015 0,0.252538 -0.11904,0.119048 -0.38602,-0.119047 -0.50507,0 0,0.08418 0,0.168359 0,0.252539 0,0.08418 0.0595,0.193014 0,0.252538 -0.0595,0.05952 -0.16836,0 -0.25254,0 -0.0842,0 -0.25254,0.08418 -0.25254,0 0,-0.08418 0.33672,0 0.25254,0 -1.43105,0 -0.0842,-0.168359 -0.50508,0.252538 -0.0595,0.05952 -0.16835,0 -0.25253,0 -0.0842,0 -0.19302,-0.05952 -0.25254,0 -0.0595,0.05952 0.0595,0.193014 0,0.252538 -0.11905,0.119048 -0.38603,-0.119048 -0.50508,0 -0.0595,0.05952 0.0376,0.177246 0,0.252538 -0.0532,0.10648 -0.25254,0.133491 -0.25254,0.252538 0,0.08418 0.16836,0 0.25254,0 0.25254,0 0.50508,0 0.75762,0 0.84179,0 1.68358,0 2.52538,0 0.13205,0 0.94375,-0.0332 1.01015,0 0.10648,0.05324 0.14606,0.199299 0.25254,0.252538 0.0753,0.03765 0.19301,-0.05952 0.25254,0 0.0595,0.05952 -0.0595,0.193015 0,0.252539 0.0595,0.05952 0.19301,-0.05952 0.25253,0 0.11905,0.119047 -0.11904,0.386028 0,0.505076 0.0595,0.05952 0.19302,-0.05952 0.25254,0 0.0102,0.01016 0,0.917411 0,1.010152 0,0.08418 0,0.168359 0,0.252538 0,0.08418 0.0595,0.193015 0,0.252539 -0.0595,0.05952 -0.19301,-0.05952 -0.25254,0 -0.0595,0.05952 -0.0313,0.174379 0,0.252538 0.13982,0.349536 0.18227,0.816464 0.50508,1.010152 0.22826,0.136958 0.50508,-0.168358 0.75761,-0.252538"
         style="fill:none;fill-rule:evenodd;stroke:#000000;stroke-width:1px;stroke-linecap:butt;stroke-linejoin:miter;stroke-opacity:1" />
      <path
         inkscape:connector-curvature="0"
         id="path3353"
         d="m 121.21831,45.997731 c 0.42089,0 0.84179,0 1.26269,0 0.0842,0 0.19301,-0.05952 0.25253,0 0.0595,0.05952 -0.0595,0.193015 0,0.252539 0.0595,0.05952 0.19302,-0.05952 0.25254,0 0.0595,0.05952 -0.0595,0.193014 0,0.252538 0.11905,0.119047 0.38603,-0.119048 0.50508,0 0.0595,0.05952 -0.0595,0.193014 0,0.252538 0.11905,0.119047 0.38603,-0.119048 0.50507,0 0.0595,0.05952 -0.0595,0.193014 0,0.252538 0.0595,0.05952 0.16836,0 0.25254,0 0.0842,0 0.16836,0 0.25254,0 0.0842,0 0.19302,0.05952 0.25254,0 0.0595,-0.05952 -0.0376,-0.177246 0,-0.252538 0.83756,-0.837564 -0.11905,0.238095 0.25254,-0.505076 0.5255,-1.051004 -0.0174,0.269972 0.50507,-0.252539 0.12627,-0.126269 -0.12627,-0.631345 0,-0.757614 0.0595,-0.05952 0.19302,0.05952 0.25254,0 0.0595,-0.05952 0,-0.168359 0,-0.252538 0,-0.420897 0,-0.841794 0,-1.262691 0,-0.08418 -0.0595,-0.193014 0,-0.252538 0.0595,-0.05952 0.16836,0 0.25254,0 0.16836,0 0.35449,-0.07529 0.50508,0 0.0753,0.03765 -0.0595,0.193014 0,0.252538 0.11904,0.119048 0.38602,-0.119047 0.50507,0 0.0595,0.05952 -0.0595,0.193015 0,0.252538 0.11905,0.119048 0.38603,-0.119047 0.50508,0 0.0595,0.05952 -0.0595,0.193015 0,0.252538 0.11905,0.119048 0.38603,-0.119047 0.50508,0 0.11904,0.119048 -0.15059,0.429784 0,0.505077 0.15058,0.07529 0.33671,0 0.50507,0 0.0842,0 0.19302,-0.05952 0.25254,0 0.0595,0.05952 -0.0595,0.193014 0,0.252538 0.0595,0.05952 0.19301,-0.05952 0.25254,0 0.0595,0.05952 -0.0595,0.193014 0,0.252538 0.0595,0.05952 0.19301,-0.05952 0.25254,0 0.0595,0.05952 -0.0595,0.193014 0,0.252538 0.0595,0.05952 0.19301,-0.05952 0.25253,0 0.0595,0.05952 -0.0595,0.193014 0,0.252538 0.0595,0.05952 0.19302,-0.05952 0.25254,0 0.0595,0.05952 -0.0595,0.193015 0,0.252538 0.0595,0.05952 0.19302,0.05952 0.25254,0 0.0102,-0.01016 0,-0.917411 0,-1.010152 0,-0.673435 -0.0842,0.08418 0.25254,-0.252538 0.0595,-0.05952 -0.0595,-0.193015 0,-0.252538 0.0595,-0.05952 0.19301,0.05952 0.25254,0 0.0608,-0.06077 -0.0608,-0.949384 0,-1.010153 0.0595,-0.05952 0.19301,0.05952 0.25253,0 0.0595,-0.05952 -0.0595,-0.193014 0,-0.252538 0.0595,-0.05952 0.19302,0.05952 0.25254,0 0.0595,-0.05952 -0.0595,-0.193014 0,-0.252538 0.0595,-0.05952 0.19302,0.05952 0.25254,0 0.11905,-0.119048 -0.11905,-0.386029 0,-0.505076 0.0595,-0.05952 0.19302,0.05952 0.25254,0 0.0595,-0.05952 -0.0595,-0.193015 0,-0.252539 0.0595,-0.05952 0.19301,-0.05952 0.25254,0 0.0595,0.05952 -0.0376,0.177246 0,0.252539 0.0532,0.106479 0.21489,0.139599 0.25254,0.252538 0.0479,0.143659 0,1.02484 0,1.26269 0,0.08418 -0.0595,0.193015 0,0.252538 0.0595,0.05952 0.19301,-0.05952 0.25253,0 0.16828,0.168274 -0.16827,0.336803 0,0.505077 0.11905,0.119047 0.38603,-0.119048 0.50508,0 0.11905,0.119047 -0.11905,0.386028 0,0.505076 0.0595,0.05952 0.19301,-0.05952 0.25254,0 0.0595,0.05952 -0.0842,0.252538 0,0.252538 0.5255,0 0.10161,-0.354151 0.25254,-0.505076 0.1331,-0.133099 0.37197,-0.119439 0.50507,-0.252538 0.11905,-0.119048 -0.11905,-0.386029 0,-0.505077 0.0595,-0.05952 0.19302,0.05952 0.25254,0 0.12627,-0.126269 -0.12627,-0.631345 0,-0.757614 0.0595,-0.05952 0.19301,0.05952 0.25254,0 0.0595,-0.05952 -0.0595,-0.193014 0,-0.252538 0.0595,-0.05952 0.19301,0.05952 0.25254,0 0.0595,-0.05952 -0.0595,-0.193014 0,-0.252538 0.0595,-0.05952 0.19301,0.05952 0.25253,0 0.0595,-0.05952 0,-0.168359 0,-0.252538 0,-0.08418 0,-0.168359 0,-0.252538"
         style="fill:none;fill-rule:evenodd;stroke:#000000;stroke-width:1px;stroke-linecap:butt;stroke-linejoin:miter;stroke-opacity:1" />
      <path
         inkscape:connector-curvature="0"
         id="path3355"
         d="m 126.77414,33.875901 c 0.55428,2.543524 -0.91561,0.410534 -1.26269,0.757614 -0.0595,0.05952 0.0595,0.193015 0,0.252538 -0.11904,0.119048 -0.35449,-0.07529 -0.50507,0 -0.10648,0.05324 -0.14606,0.199299 -0.25254,0.252539 -0.15059,0.07529 -0.35449,-0.07529 -0.50508,0 -0.10648,0.05324 -0.14606,0.199298 -0.25254,0.252538 -0.15058,0.07529 -0.38602,-0.119048 -0.50507,0 -0.0595,0.05952 0.0595,0.193014 0,0.252538 -0.0595,0.05952 -0.16836,0 -0.25254,0 -0.0613,0 -0.74949,-0.0081 -0.75761,0 -0.0595,0.05952 0,0.168359 0,0.252538 0,0.08418 0,0.168359 0,0.252538 0,0.113733 -0.0384,0.680759 0,0.757615 0.0899,0.179719 0.41521,0.325357 0.50507,0.505076 0.0376,0.07529 -0.0595,0.193014 0,0.252538 0.0595,0.05952 0.19302,-0.05952 0.25254,0 0.0595,0.05952 -0.0595,0.193014 0,0.252538 0.0595,0.05952 0.17725,-0.03765 0.25254,0 0.10648,0.05324 0.14606,0.199298 0.25254,0.252538 0.15058,0.07529 0.38603,-0.119047 0.50507,0 0.0595,0.05952 -0.0595,0.193015 0,0.252538 0.0608,0.06077 0.94939,-0.06077 1.01016,0 0.0595,0.05952 -0.0595,0.193015 0,0.252538 0.0595,0.05952 0.16835,0 0.25253,0 0.0842,0 0.16836,0 0.25254,0 0.4209,0 0.8418,0 1.26269,0 0.0842,0 0.19302,0.05952 0.25254,0 0.0595,-0.05952 -0.0595,-0.193014 0,-0.252538 0.0595,-0.05952 0.19302,0.05952 0.25254,0 0.0595,-0.05952 -0.0595,-0.193014 0,-0.252538 0.0608,-0.06077 0.94938,0.06077 1.01015,0 0.0595,-0.05952 -0.0595,-0.193014 0,-0.252538 0.0595,-0.05952 0.19302,0.05952 0.25254,0 0.0595,-0.05952 -0.0595,-0.193014 0,-0.252538 0.0595,-0.05952 0.19301,0.05952 0.25254,0 0.12627,-0.126269 -0.12627,-0.631345 0,-0.757614 0.0595,-0.05952 0.19301,0.05952 0.25254,0 0.0114,-0.01145 0,-1.14362 0,-1.262691 0,-0.119071 0.0114,-1.251245 0,-1.262691 -0.0595,-0.05952 -0.16836,0 -0.25254,0 -0.18617,0 -1.15787,0.04193 -1.26269,0 -0.34954,-0.139814 -0.67344,-0.336717 -1.01016,-0.505076 z"
         style="fill:none;fill-rule:evenodd;stroke:#000000;stroke-width:1px;stroke-linecap:butt;stroke-linejoin:miter;stroke-opacity:1" />
      <path
         inkscape:connector-curvature="0"
         id="path3357"
         d="m 125.00638,37.663973 c -0.27613,-0.633645 -0.25254,-1.134545 -0.25254,-1.767767 0,-0.08418 -0.0595,-0.193014 0,-0.252538 0.0595,-0.05952 0.17725,0.03765 0.25254,0 0.10648,-0.05324 0.14606,-0.199299 0.25254,-0.252538 0.15872,-0.07936 0.85142,0.07936 1.01015,0 0.10648,-0.05324 0.14606,-0.199299 0.25254,-0.252538 0.17443,-0.08722 1.17404,0.08864 1.26269,0 0.0595,-0.05952 -0.0595,-0.193015 0,-0.252539 0.0595,-0.05952 0.16836,0 0.25254,0 0.0842,0 0.25253,-0.08418 0.25253,0 0,0.08418 -0.33671,0 -0.25253,0 0.16835,0 0.33671,0 0.50507,0 0.0842,0 0.19302,-0.05952 0.25254,0 0.0595,0.05952 -0.0595,0.193015 0,0.252539 0.0595,0.05952 0.19301,-0.05952 0.25254,0 0.12627,0.126269 -0.12627,0.631345 0,0.757614 0.0595,0.05952 0.19301,-0.05952 0.25254,0 0.0102,0.01016 0,0.917411 0,1.010153 0,0.08418 0.0595,0.193014 0,0.252538 -0.0595,0.05952 -0.19302,-0.05952 -0.25254,0 -0.52251,0.52251 0.79846,-0.02043 -0.25254,0.505076 -0.0753,0.03765 -0.19301,-0.05952 -0.25254,0 -0.11905,0.119048 0.11905,0.386029 0,0.505076 -0.11905,0.119048 -0.38603,-0.119047 -0.50507,0 -0.0595,0.05952 0.0595,0.193015 0,0.252538 -0.0595,0.05952 -0.16836,0 -0.25254,0 -0.179,0 -1.44994,0.03265 -1.51523,0 -0.10648,-0.05324 -0.1993,-0.146058 -0.25254,-0.252538 -0.0376,-0.07529 0,-0.168359 0,-0.252538 0,-0.08418 -0.0595,-0.193014 0,-0.252538 0.67344,0 -0.0842,0.08418 0.25254,-0.252538 0.0595,-0.05952 0.19301,0.05952 0.25254,0 0.0595,-0.05952 -0.0595,-0.193015 0,-0.252538 0.0595,-0.05952 0.19301,0.05952 0.25253,0 0.11905,-0.119048 -0.11904,-0.386029 0,-0.505077 0.11905,-0.119047 0.38603,0.119048 0.50508,0 0.0595,-0.05952 -0.0595,-0.193014 0,-0.252538 0.11905,-0.119047 0.38603,0.119048 0.50508,0 0.0595,-0.05952 -0.0595,-0.193014 0,-0.252538 0.0595,-0.05952 0.16836,0 0.25254,0 0.0612,0 0.74949,-0.0081 0.75761,0 0.0595,0.05952 -0.0595,0.193014 0,0.252538 0.0595,0.05952 0.19301,-0.05952 0.25254,0 0.0595,0.05952 0,0.168359 0,0.252538 0,0.09274 0.0102,0.99999 0,1.010153 -0.0595,0.05952 -0.16836,0 -0.25254,0 -0.0842,0 -0.16836,0 -0.25254,0 -0.67343,0 -1.34687,0 -2.0203,0 -0.0842,0 -0.16836,0 -0.25254,0 -0.0842,0 -0.19302,0.05952 -0.25254,0 -0.0595,-0.05952 0.0842,-0.252538 0,-0.252538 -0.34708,0 -0.76473,0.497961 -1.01015,0.252538 -0.24543,-0.245423 0.18447,-0.669812 0.25254,-1.010153 0.0165,-0.08254 -0.0595,-0.193014 0,-0.252538 0.0595,-0.05952 0.17724,0.03765 0.25253,0 0.10648,-0.05324 0.14606,-0.199298 0.25254,-0.252538 0.15059,-0.07529 0.38603,0.119048 0.50508,0 0.0595,-0.05952 -0.0595,-0.193014 0,-0.252538 0.0595,-0.05952 0.16836,0 0.25254,0 0.0612,0 0.74949,-0.0081 0.75761,0 0.0115,0.01145 0,1.143619 0,1.262691 0,0.08418 0.0595,0.193014 0,0.252538 -0.12627,0.126269 -0.63134,-0.126269 -0.75761,0 -0.33672,0.336717 0.42089,0.252538 -0.25254,0.252538"
         style="fill:none;fill-rule:evenodd;stroke:#000000;stroke-width:1px;stroke-linecap:butt;stroke-linejoin:miter;stroke-opacity:1" />
    </g>
  </g>
</svg>
